<svg width="17" height="17" viewBox="0 0 17 17" fill="none" xmlns="http://www.w3.org/2000/svg">
<path d="M16.7012 6.3148L15.6895 5.30312L16.528 4.465L16.5288 4.4638C16.9249 4.06377 16.9246 3.41917 16.528 3.01957L13.9804 0.472427C13.7892 0.280082 13.529 0.172266 13.2579 0.173044H13.2563C12.9856 0.172528 12.726 0.280336 12.5353 0.472427L11.6967 1.3107L10.6847 0.298785C10.2854 -0.0995949 9.63899 -0.0995949 9.23969 0.298785L8.56587 0.972598C8.16748 1.3719 8.16748 2.01832 8.56587 2.41762L10.996 4.84757L4.84758 10.9962L2.41765 8.56616C2.01834 8.16778 1.37192 8.16778 0.97261 8.56616L0.298788 9.23998C-0.0995961 9.63928 -0.0995961 10.2857 0.298788 10.685L1.31047 11.6967L0.472034 12.5348C0.0736501 12.9343 0.0736501 13.5808 0.472034 13.9802L3.01962 16.5274C3.41882 16.926 4.06546 16.926 4.46466 16.5274L5.30295 15.6894L6.31448 16.701C6.71367 17.0997 7.36032 17.0997 7.75952 16.701L8.43334 16.0272C8.83172 15.6279 8.83172 14.9815 8.43334 14.5822L6.00356 12.1523L12.1521 6.00353L14.5823 8.43363C14.9815 8.83228 15.6282 8.83228 16.0274 8.43363L16.7012 7.75982C17.0996 7.36052 17.0996 6.7141 16.7012 6.3148Z" fill="#3B76EF"/>
</svg>
