<svg width="148" height="103" viewBox="0 0 148 103" fill="none" xmlns="http://www.w3.org/2000/svg">
<g clip-path="url(#clip0_112_4692)">
<path d="M67.6393 126.198C68.7253 126.28 69.821 126.327 70.9254 126.338L70.8443 134.174C71.0473 134.177 71.2505 134.178 71.454 134.178C71.6574 134.178 71.8606 134.177 72.0636 134.174L71.9825 126.338C73.0869 126.327 74.1826 126.28 75.2686 126.198L75.8575 134.012C76.2617 133.982 76.6648 133.947 77.0668 133.908L76.3151 126.108C77.4131 126.002 78.5007 125.861 79.5767 125.685L80.8388 133.42C81.2403 133.354 81.6405 133.284 82.0392 133.211L80.6141 125.505C81.6968 125.304 82.7672 125.069 83.824 124.801L85.755 132.396C86.1498 132.295 86.543 132.191 86.9344 132.083L84.8427 124.53C85.9032 124.236 86.9495 123.909 87.9802 123.548L90.5676 130.945C90.9513 130.811 91.3332 130.673 91.7131 130.531L88.9694 123.19C89.9996 122.805 91.0136 122.387 92.0101 121.938L95.2337 129.081C95.6039 128.913 95.9719 128.743 96.3378 128.568L92.9638 121.495C93.9557 121.022 94.9295 120.517 95.8838 119.982L99.7174 126.817C100.072 126.618 100.424 126.416 100.773 126.21L96.796 119.457C97.7421 118.9 98.668 118.313 99.5725 117.696L103.986 124.172C104.321 123.944 104.654 123.712 104.985 123.476L100.436 117.094C101.33 116.457 102.201 115.792 103.049 115.099L108.007 121.168C108.321 120.912 108.633 120.652 108.942 120.388L103.857 114.425C104.692 113.713 105.503 112.975 106.288 112.211L111.753 117.828C112.044 117.545 112.332 117.259 112.616 116.97L107.035 111.469C107.804 110.688 108.548 109.882 109.265 109.052L115.196 114.175C115.461 113.867 115.723 113.558 115.982 113.245L109.944 108.249C110.642 107.405 111.313 106.537 111.956 105.648L118.309 110.235C118.547 109.906 118.781 109.574 119.012 109.24L112.563 104.788C113.185 103.887 113.778 102.964 114.34 102.022L121.07 106.037C121.278 105.689 121.482 105.338 121.683 104.984L114.869 101.113C115.41 100.161 115.92 99.1899 116.398 98.2006L123.454 101.61C123.631 101.245 123.804 100.877 123.973 100.508L116.846 97.2492C117.3 96.2547 117.723 95.2427 118.112 94.2144L125.441 96.9895C125.585 96.6096 125.725 96.2277 125.861 95.844L118.474 93.2265C118.839 92.1971 119.171 91.1521 119.468 90.0927L127.013 92.2099C127.123 91.8181 127.229 91.4247 127.331 91.0296L119.742 89.0749C120.014 88.0187 120.252 86.949 120.455 85.8669L128.157 87.3101C128.232 86.9109 128.303 86.5103 128.369 86.1083L120.637 84.8301C120.815 83.7543 120.958 82.6669 121.065 81.569L128.865 82.3305C128.904 81.9278 128.94 81.5241 128.97 81.1192L121.156 80.5228C121.239 79.4368 121.287 78.3411 121.299 77.2368L129.135 77.3189C129.137 77.1156 129.138 76.912 129.138 76.7082C129.138 76.5044 129.137 76.3009 129.135 76.0975L121.299 76.1796C121.287 75.0753 121.239 73.9796 121.156 72.8937L128.97 72.2972C128.94 71.8923 128.904 71.4886 128.865 71.086L121.065 71.8474C120.958 70.7495 120.815 69.6621 120.637 68.5863L128.369 67.3081C128.303 66.9062 128.232 66.5055 128.157 66.1063L120.455 67.5495C120.252 66.4674 120.014 65.3977 119.742 64.3415L127.331 62.3869C127.229 61.9918 127.123 61.5983 127.013 61.2065L119.468 63.3237C119.171 62.2644 118.839 61.2193 118.474 60.1899L125.861 57.5724C125.725 57.1887 125.585 56.8068 125.441 56.4269L118.112 59.202C117.723 58.1737 117.3 57.1617 116.846 56.1673L123.973 52.9088C123.804 52.5391 123.631 52.1715 123.454 51.8061L116.398 55.2158C115.92 54.2265 115.41 53.2554 114.869 52.3039L121.683 48.4323C121.482 48.0789 121.278 47.7279 121.07 47.3792L114.34 51.3946C113.778 50.452 113.185 49.5295 112.563 48.6284L119.012 44.1764C118.781 43.842 118.547 43.5103 118.309 43.1812L111.956 47.7686C111.313 46.8792 110.642 46.0118 109.944 45.1678L115.982 40.1717C115.723 39.8589 115.461 39.5489 115.196 39.2418L109.265 44.3641C108.548 43.5343 107.804 42.7283 107.035 41.9476L112.616 36.4467C112.332 36.1577 112.044 35.8718 111.753 35.5889L106.288 41.2059C105.503 40.4417 104.692 39.7032 103.857 38.9917L108.942 33.0281C108.633 32.7649 108.321 32.5049 108.007 32.2481L103.049 38.3173C102.201 37.6244 101.33 36.9589 100.436 36.3221L104.985 29.9404C104.654 29.7049 104.321 29.4728 103.986 29.2441L99.5725 35.7202C98.668 35.1038 97.7421 34.5164 96.796 33.9592L100.773 27.2066C100.424 27.0008 100.072 26.7985 99.7174 26.5998L95.8838 33.4348C94.9295 32.8995 93.9557 32.3947 92.9638 31.9215L96.3378 24.8483C95.9719 24.6737 95.6038 24.5029 95.2337 24.3359L92.0101 31.4789C91.0136 31.0292 89.9996 30.6112 88.9694 30.2261L91.7131 22.8854C91.3332 22.7434 90.9513 22.6053 90.5676 22.4711L87.9802 29.8683C86.9495 29.5078 85.9032 29.18 84.8427 28.8863L86.9344 21.3339C86.543 21.2255 86.1498 21.121 85.755 21.0207L83.824 28.6158C82.7672 28.3471 81.6968 28.112 80.6141 27.9118L82.0392 20.2057C81.6405 20.132 81.2403 20.0623 80.8388 19.9968L79.5767 27.7312C78.5007 27.5556 77.4131 27.4144 76.3151 27.3086L77.0668 19.508C76.6648 19.4692 76.2617 19.4346 75.8575 19.4041L75.2686 27.2187C74.1826 27.1369 73.0869 27.0897 71.9825 27.0783L72.0636 19.242C71.8606 19.2399 71.6574 19.2388 71.454 19.2388C71.2505 19.2388 71.0473 19.2399 70.8443 19.242L70.9254 27.0783C69.821 27.0897 68.7253 27.1369 67.6393 27.2187L67.0504 19.4041C66.6463 19.4346 66.2431 19.4692 65.8411 19.508L66.5928 27.3086C65.4948 27.4144 64.4072 27.5556 63.3312 27.7312L62.0691 19.9968C61.6676 20.0623 61.2674 20.132 60.8687 20.2057L62.2938 27.9118C61.2111 28.112 60.1407 28.3471 59.0839 28.6158L57.1529 21.0207C56.7581 21.121 56.365 21.2255 55.9735 21.3339L58.0653 28.8863C57.0047 29.18 55.9585 29.5078 54.9277 29.8683L52.3403 22.4711C51.9566 22.6053 51.5747 22.7434 51.1948 22.8854L53.9385 30.2261C52.9083 30.6112 51.8943 31.0292 50.8978 31.4789L47.6742 24.3359C47.3041 24.5029 46.936 24.6737 46.5701 24.8483L49.9441 31.9215C48.9522 32.3947 47.9784 32.8995 47.0242 33.4348L43.1905 26.5998C42.8362 26.7985 42.4843 27.0008 42.1348 27.2066L46.1119 33.9592C45.1658 34.5164 44.2399 35.1038 43.3354 35.7202L38.9224 29.2441C38.5868 29.4728 38.2538 29.7049 37.9234 29.9404L42.4718 36.3221C41.5782 36.9589 40.7067 37.6244 39.8586 38.3173L34.9008 32.2481C34.5865 32.5048 34.2749 32.7649 33.9662 33.0281L39.0505 38.9917C38.2159 39.7032 37.4051 40.4417 36.6197 41.2059L31.155 35.5889C30.8642 35.8718 30.5764 36.1577 30.2916 36.4467L35.8732 41.9476C35.1037 42.7283 34.36 43.5343 33.6434 44.3641L27.7124 39.2418C27.4471 39.5489 27.185 39.8589 26.9262 40.1717L32.9639 45.1678C32.2654 46.0118 31.5945 46.8792 30.9524 47.7686L24.5986 43.1811C24.361 43.5103 24.1267 43.842 23.8959 44.1764L30.3453 48.6284C29.7233 49.5295 29.1304 50.452 28.5679 51.3946L21.8381 47.3792C21.6301 47.7279 21.4256 48.0789 21.2248 48.4323L28.0384 52.3039C27.4978 53.2554 26.9877 54.2265 26.5097 55.2158L19.4536 51.8061C19.277 52.1715 19.1042 52.5391 18.9351 52.9088L26.0623 56.1673C25.6077 57.1617 25.185 58.1737 24.7957 59.202L17.4667 56.4269C17.3229 56.8068 17.183 57.1887 17.047 57.5724L24.4337 60.1899C24.0689 61.2193 23.7372 62.2644 23.44 63.3237L15.8947 61.2065C15.7847 61.5983 15.6789 61.9918 15.5771 62.3869L23.1662 64.3415C22.8941 65.3977 22.6561 66.4674 22.4534 67.5495L14.7507 66.1063C14.6759 66.5055 14.6052 66.9062 14.5388 67.3081L22.2706 68.5863C22.0927 69.6621 21.9496 70.7495 21.8425 71.8474L14.0428 71.086C14.0035 71.4886 13.9684 71.8923 13.9375 72.2972L21.7515 72.8936C21.6686 73.9796 21.6208 75.0753 21.6092 76.1796L13.7729 76.0975C13.7708 76.3009 13.7697 76.5044 13.7697 76.7082C13.7697 76.912 13.7708 77.1156 13.7729 77.3189L21.6092 77.2368C21.6208 78.3411 21.6686 79.4368 21.7515 80.5228L13.9375 81.1192C13.9684 81.5241 14.0035 81.9278 14.0428 82.3305L21.8425 81.569C21.9496 82.6669 22.0927 83.7543 22.2706 84.8301L14.5388 86.1083C14.6052 86.5103 14.6759 86.9109 14.7507 87.3101L22.4534 85.8669C22.6561 86.949 22.8941 88.0187 23.1662 89.0749L15.5771 91.0296C15.6789 91.4247 15.7847 91.8181 15.8947 92.2099L23.44 90.0927C23.7372 91.1521 24.0689 92.1971 24.4337 93.2265L17.047 95.844C17.183 96.2277 17.3229 96.6096 17.4668 96.9895L24.7957 94.2144C25.185 95.2427 25.6077 96.2547 26.0623 97.2492L18.9351 100.508C19.1042 100.877 19.277 101.245 19.4536 101.61L26.5097 98.2006C26.9877 99.1899 27.4978 100.161 28.0384 101.113L21.2248 104.984C21.4256 105.338 21.6301 105.689 21.8381 106.037L28.5679 102.022C29.1304 102.964 29.7233 103.887 30.3453 104.788L23.8959 109.24C24.1267 109.574 24.361 109.906 24.5986 110.235L30.9523 105.648C31.5945 106.537 32.2654 107.405 32.9638 108.249L26.9262 113.245C27.185 113.557 27.4471 113.867 27.7124 114.175L33.6434 109.052C34.36 109.882 35.1037 110.688 35.8732 111.469L30.2916 116.97C30.5763 117.259 30.8642 117.545 31.155 117.828L36.6197 112.211C37.4051 112.975 38.2159 113.713 39.0505 114.425L33.9662 120.388C34.2749 120.652 34.5865 120.912 34.9008 121.168L39.8586 115.099C40.7067 115.792 41.5782 116.457 42.4718 117.094L37.9234 123.476C38.2538 123.712 38.5868 123.944 38.9224 124.172L43.3354 117.696C44.2399 118.313 45.1658 118.9 46.1119 119.457L42.1348 126.21C42.4843 126.416 42.8362 126.618 43.1905 126.817L47.0242 119.982C47.9784 120.517 48.9522 121.022 49.9441 121.495L46.5701 128.568C46.936 128.743 47.3041 128.913 47.6742 129.081L50.8978 121.938C51.8943 122.387 52.9083 122.805 53.9385 123.19L51.1948 130.531C51.5747 130.673 51.9566 130.811 52.3403 130.945L54.9277 123.548C55.9585 123.909 57.0047 124.236 58.0653 124.53L55.9735 132.083C56.365 132.191 56.7581 132.295 57.1529 132.396L59.0839 124.801C60.1408 125.069 61.2111 125.304 62.2938 125.505L60.8687 133.211C61.2674 133.284 61.6676 133.354 62.0691 133.42L63.3312 125.685C64.4072 125.861 65.4948 126.002 66.5928 126.108L65.8412 133.908C66.2431 133.947 66.6463 133.982 67.0505 134.012L67.6393 126.198Z" stroke="#E0E7FF" stroke-width="15.6735" stroke-dasharray="1.04 3.27"/>
<path d="M67.9017 126.198C68.9877 126.28 70.0835 126.327 71.1878 126.338L71.1068 134.174C71.3098 134.177 71.513 134.178 71.7164 134.178C71.9198 134.178 72.1231 134.177 72.3261 134.174L72.245 126.338C73.3493 126.327 74.4451 126.28 75.5311 126.198L76.1199 134.012C76.5241 133.982 76.9272 133.947 77.3292 133.908L76.5775 126.108C77.6755 126.002 78.7631 125.861 79.8391 125.685L81.1012 133.42C81.5028 133.354 81.9029 133.284 82.3017 133.211L80.8765 125.505C81.9592 125.304 83.0296 125.069 84.0865 124.801L86.0175 132.396C86.4122 132.295 86.8054 132.191 87.1969 132.083L85.1051 124.53C86.1656 124.236 87.2119 123.909 88.2427 123.548L90.8301 130.945C91.2138 130.811 91.5956 130.673 91.9755 130.531L89.2319 123.19C90.2621 122.805 91.2761 122.387 92.2726 121.938L95.4962 129.081C95.8663 128.913 96.2343 128.743 96.6002 128.568L93.2263 121.495C94.2182 121.022 95.1919 120.517 96.1462 119.982L99.9799 126.817C100.334 126.618 100.686 126.416 101.036 126.21L97.0585 119.457C98.0045 118.9 98.9305 118.313 99.835 117.696L104.248 124.172C104.584 123.944 104.917 123.712 105.247 123.476L100.699 117.094C101.592 116.457 102.464 115.792 103.312 115.099L108.27 121.168C108.584 120.912 108.895 120.652 109.204 120.388L104.12 114.425C104.955 113.713 105.765 112.975 106.551 112.211L112.015 117.828C112.306 117.545 112.594 117.259 112.879 116.97L107.297 111.469C108.067 110.688 108.81 109.882 109.527 109.052L115.458 114.175C115.723 113.867 115.985 113.558 116.244 113.245L110.207 108.249C110.905 107.405 111.576 106.537 112.218 105.648L118.572 110.235C118.809 109.906 119.044 109.574 119.274 109.24L112.825 104.788C113.447 103.887 114.04 102.964 114.602 102.022L121.332 106.037C121.54 105.689 121.745 105.338 121.946 104.984L115.132 101.113C115.673 100.161 116.183 99.1899 116.661 98.2006L123.717 101.61C123.893 101.245 124.066 100.877 124.235 100.508L117.108 97.2492C117.563 96.2547 117.985 95.2427 118.375 94.2144L125.704 96.9895C125.847 96.6096 125.987 96.2277 126.123 95.844L118.737 93.2265C119.101 92.1971 119.433 91.1521 119.73 90.0927L127.276 92.2099C127.386 91.8181 127.491 91.4247 127.593 91.0296L120.004 89.0749C120.276 88.0187 120.514 86.949 120.717 85.8669L128.42 87.3101C128.494 86.9109 128.565 86.5103 128.632 86.1083L120.9 84.8301C121.078 83.7543 121.221 82.6669 121.328 81.569L129.128 82.3305C129.167 81.9278 129.202 81.5241 129.233 81.1192L121.419 80.5228C121.502 79.4368 121.55 78.3411 121.561 77.2368L129.397 77.3189C129.4 77.1156 129.401 76.912 129.401 76.7082C129.401 76.5044 129.4 76.3009 129.397 76.0975L121.561 76.1796C121.55 75.0753 121.502 73.9796 121.419 72.8937L129.233 72.2972C129.202 71.8923 129.167 71.4886 129.128 71.086L121.328 71.8474C121.221 70.7495 121.078 69.6621 120.9 68.5863L128.632 67.3081C128.565 66.9062 128.494 66.5055 128.42 66.1063L120.717 67.5495C120.514 66.4674 120.276 65.3977 120.004 64.3415L127.593 62.3869C127.491 61.9918 127.386 61.5983 127.276 61.2065L119.73 63.3237C119.433 62.2644 119.101 61.2193 118.737 60.1899L126.123 57.5724C125.987 57.1887 125.847 56.8068 125.704 56.4269L118.375 59.202C117.985 58.1737 117.563 57.1617 117.108 56.1673L124.235 52.9088C124.066 52.5391 123.893 52.1715 123.717 51.8061L116.661 55.2158C116.183 54.2265 115.673 53.2554 115.132 52.3039L121.946 48.4323C121.745 48.0789 121.54 47.7279 121.332 47.3792L114.602 51.3946C114.04 50.452 113.447 49.5295 112.825 48.6284L119.274 44.1764C119.044 43.842 118.809 43.5103 118.572 43.1812L112.218 47.7686C111.576 46.8792 110.905 46.0118 110.207 45.1678L116.244 40.1717C115.985 39.8589 115.723 39.5489 115.458 39.2418L109.527 44.3641C108.81 43.5343 108.067 42.7283 107.297 41.9476L112.879 36.4467C112.594 36.1577 112.306 35.8718 112.015 35.5889L106.551 41.2059C105.765 40.4417 104.955 39.7032 104.12 38.9917L109.204 33.0281C108.895 32.7649 108.584 32.5049 108.27 32.2481L103.312 38.3173C102.464 37.6244 101.592 36.9589 100.699 36.3221L105.247 29.9404C104.917 29.7049 104.584 29.4728 104.248 29.2441L99.835 35.7202C98.9305 35.1038 98.0045 34.5164 97.0585 33.9592L101.036 27.2066C100.686 27.0008 100.334 26.7985 99.9799 26.5998L96.1462 33.4348C95.1919 32.8995 94.2182 32.3947 93.2263 31.9215L96.6002 24.8483C96.2343 24.6737 95.8663 24.5029 95.4962 24.3359L92.2726 31.4789C91.2761 31.0292 90.2621 30.6112 89.2319 30.2261L91.9755 22.8854C91.5956 22.7434 91.2138 22.6053 90.8301 22.4711L88.2427 29.8683C87.2119 29.5078 86.1656 29.18 85.1051 28.8863L87.1969 21.3339C86.8054 21.2255 86.4122 21.121 86.0175 21.0207L84.0865 28.6158C83.0296 28.3471 81.9592 28.112 80.8765 27.9118L82.3017 20.2057C81.9029 20.132 81.5028 20.0623 81.1012 19.9968L79.8391 27.7312C78.7631 27.5556 77.6755 27.4144 76.5775 27.3086L77.3292 19.508C76.9272 19.4692 76.5241 19.4346 76.1199 19.4041L75.5311 27.2187C74.4451 27.1369 73.3493 27.0897 72.245 27.0783L72.3261 19.242C72.1231 19.2399 71.9198 19.2388 71.7164 19.2388C71.513 19.2388 71.3098 19.2399 71.1068 19.242L71.1878 27.0783C70.0835 27.0897 68.9877 27.1369 67.9017 27.2187L67.3129 19.4041C66.9087 19.4346 66.5056 19.4692 66.1036 19.508L66.8553 27.3086C65.7573 27.4144 64.6697 27.5556 63.5937 27.7312L62.3316 19.9968C61.9301 20.0623 61.5299 20.132 61.1311 20.2057L62.5563 27.9118C61.4736 28.112 60.4032 28.3471 59.3463 28.6158L57.4153 21.0207C57.0206 21.121 56.6274 21.2255 56.2359 21.3339L58.3277 28.8863C57.2672 29.18 56.2209 29.5078 55.1901 29.8683L52.6027 22.4711C52.219 22.6053 51.8372 22.7434 51.4573 22.8854L54.2009 30.2261C53.1707 30.6112 52.1567 31.0292 51.1603 31.4789L47.9367 24.3359C47.5665 24.5029 47.1985 24.6737 46.8326 24.8483L50.2065 31.9215C49.2146 32.3947 48.2409 32.8995 47.2866 33.4348L43.4529 26.5998C43.0987 26.7985 42.7467 27.0008 42.3972 27.2066L46.3743 33.9592C45.4283 34.5164 44.5023 35.1038 43.5978 35.7202L39.1848 29.2441C38.8493 29.4728 38.5162 29.7049 38.1858 29.9404L42.7342 36.3221C41.8407 36.9589 40.9692 37.6244 40.121 38.3173L35.1633 32.2481C34.8489 32.5048 34.5374 32.7649 34.2287 33.0281L39.3129 38.9917C38.4783 39.7032 37.6676 40.4417 36.8821 41.2059L31.4174 35.5889C31.1266 35.8718 30.8388 36.1577 30.554 36.4467L36.1356 41.9476C35.3662 42.7283 34.6225 43.5343 33.9058 44.3641L27.9748 39.2418C27.7096 39.5489 27.4475 39.8589 27.1887 40.1717L33.2263 45.1678C32.5279 46.0118 31.8569 46.8792 31.2148 47.7686L24.8611 43.1811C24.6234 43.5103 24.3892 43.842 24.1584 44.1764L30.6077 48.6284C29.9857 49.5295 29.3928 50.452 28.8304 51.3946L22.1005 47.3792C21.8925 47.7279 21.6881 48.0789 21.4873 48.4323L28.3009 52.3039C27.7602 53.2554 27.2502 54.2265 26.7721 55.2158L19.716 51.8061C19.5395 52.1715 19.3666 52.5391 19.1976 52.9088L26.3248 56.1673C25.8701 57.1617 25.4475 58.1737 25.0581 59.202L17.7292 56.4269C17.5853 56.8068 17.4454 57.1887 17.3094 57.5724L24.6961 60.1899C24.3313 61.2193 23.9997 62.2644 23.7025 63.3237L16.1571 61.2065C16.0472 61.5983 15.9413 61.9918 15.8396 62.3869L23.4286 64.3415C23.1566 65.3977 22.9186 66.4674 22.7158 67.5495L15.0131 66.1063C14.9383 66.5055 14.8677 66.9062 14.8012 67.3081L22.533 68.5863C22.3552 69.6621 22.2121 70.7495 22.1049 71.8474L14.3053 71.086C14.266 71.4886 14.2308 71.8923 14.1999 72.2972L22.0139 72.8936C21.931 73.9796 21.8832 75.0753 21.8717 76.1796L14.0354 76.0975C14.0332 76.3009 14.0322 76.5044 14.0322 76.7082C14.0322 76.912 14.0332 77.1156 14.0354 77.3189L21.8717 77.2368C21.8832 78.3411 21.931 79.4368 22.0139 80.5228L14.1999 81.1192C14.2308 81.5241 14.266 81.9278 14.3053 82.3305L22.1049 81.569C22.2121 82.6669 22.3552 83.7543 22.533 84.8301L14.8012 86.1083C14.8677 86.5103 14.9383 86.9109 15.0131 87.3101L22.7158 85.8669C22.9186 86.949 23.1566 88.0187 23.4286 89.0749L15.8396 91.0296C15.9413 91.4247 16.0472 91.8181 16.1571 92.2099L23.7025 90.0927C23.9997 91.1521 24.3313 92.1971 24.6961 93.2265L17.3094 95.844C17.4454 96.2277 17.5853 96.6096 17.7292 96.9895L25.0581 94.2144C25.4475 95.2427 25.8701 96.2547 26.3248 97.2492L19.1976 100.508C19.3666 100.877 19.5395 101.245 19.716 101.61L26.7721 98.2006C27.2502 99.1899 27.7602 100.161 28.3009 101.113L21.4873 104.984C21.6881 105.338 21.8925 105.689 22.1005 106.037L28.8304 102.022C29.3928 102.964 29.9857 103.887 30.6077 104.788L24.1584 109.24C24.3892 109.574 24.6234 109.906 24.8611 110.235L31.2148 105.648C31.8569 106.537 32.5279 107.405 33.2263 108.249L27.1887 113.245C27.4475 113.557 27.7096 113.867 27.9748 114.175L33.9058 109.052C34.6225 109.882 35.3662 110.688 36.1356 111.469L30.554 116.97C30.8388 117.259 31.1266 117.545 31.4174 117.828L36.8821 112.211C37.6676 112.975 38.4783 113.713 39.3129 114.425L34.2287 120.388C34.5374 120.652 34.8489 120.912 35.1633 121.168L40.121 115.099C40.9692 115.792 41.8407 116.457 42.7342 117.094L38.1858 123.476C38.5162 123.712 38.8492 123.944 39.1848 124.172L43.5978 117.696C44.5023 118.313 45.4283 118.9 46.3743 119.457L42.3972 126.21C42.7467 126.416 43.0987 126.618 43.4529 126.817L47.2866 119.982C48.2409 120.517 49.2146 121.022 50.2065 121.495L46.8326 128.568C47.1985 128.743 47.5665 128.913 47.9367 129.081L51.1603 121.938C52.1567 122.387 53.1707 122.805 54.2009 123.19L51.4573 130.531C51.8372 130.673 52.219 130.811 52.6027 130.945L55.1901 123.548C56.2209 123.909 57.2672 124.236 58.3277 124.53L56.2359 132.083C56.6274 132.191 57.0206 132.295 57.4153 132.396L59.3463 124.801C60.4032 125.069 61.4736 125.304 62.5563 125.505L61.1311 133.211C61.5299 133.284 61.9301 133.354 62.3316 133.42L63.5937 125.685C64.6697 125.861 65.7573 126.002 66.8553 126.108L66.1036 133.908C66.5056 133.947 66.9087 133.982 67.3129 134.012L67.9017 126.198Z" stroke="#58CEFF" stroke-width="15.6735" stroke-dasharray="1.04 3.27"/>
<path d="M71.7164 120.463C71.6633 120.463 71.6102 120.463 71.5571 120.463C71.4996 120.463 71.4421 120.463 71.3847 120.462L71.3799 121.115C70.2996 121.107 69.2284 121.061 68.1677 120.978L68.2187 120.327C67.9995 120.31 67.7808 120.291 67.5625 120.27L67.5018 120.921C66.4278 120.82 65.3648 120.682 64.3142 120.508L64.4214 119.863C64.204 119.827 63.9872 119.789 63.7709 119.75L63.6541 120.393C62.5948 120.2 61.5485 119.97 60.5168 119.705L60.6796 119.072C60.466 119.017 60.253 118.961 60.0406 118.902L59.8682 119.532C58.8304 119.248 57.8077 118.928 56.8016 118.573L57.0191 117.957C56.8117 117.884 56.605 117.809 56.399 117.732L56.1723 118.345C55.1638 117.972 54.1726 117.563 53.2002 117.12L53.4707 116.526C53.2705 116.435 53.0712 116.342 52.8727 116.248L52.5933 116.839C51.6222 116.379 50.6705 115.886 49.7396 115.36L50.0608 114.791C49.8692 114.683 49.6786 114.573 49.4888 114.462L49.1591 115.026C48.2326 114.484 47.3275 113.91 46.4453 113.305L46.8147 112.766C46.6332 112.642 46.4527 112.516 46.2732 112.389L45.8958 112.922C45.0205 112.302 44.1686 111.651 43.3417 110.972L43.7564 110.467C43.5864 110.328 43.4174 110.187 43.2496 110.044L42.8274 110.543C42.0095 109.85 41.217 109.128 40.4516 108.378L40.9084 107.912C40.7512 107.758 40.5952 107.603 40.4403 107.447L39.9765 107.907C39.2221 107.146 38.4951 106.358 37.7971 105.545L38.2927 105.119C38.1494 104.952 38.0074 104.784 37.8666 104.615L37.3647 105.033C36.6796 104.21 36.0237 103.363 35.3987 102.491L35.9293 102.111C35.8011 101.932 35.6742 101.752 35.5487 101.571L35.0124 101.944C34.4018 101.065 33.8222 100.164 33.2752 99.2404L33.8371 98.9075C33.725 98.7184 33.6143 98.5284 33.5051 98.3374L32.9383 98.6618C32.4071 97.7336 31.9085 96.7845 31.4442 95.8159L32.0331 95.5336C31.9381 95.3356 31.8446 95.1368 31.7526 94.9371L31.1595 95.2105C30.7122 94.2401 30.2991 93.2508 29.9215 92.2442L30.5329 92.0149C30.4558 91.8092 30.3801 91.6028 30.306 91.3956L29.6911 91.6157C29.3316 90.6109 29.0074 89.5895 28.72 88.5528L29.3493 88.3783C29.2905 88.1662 29.2332 87.9535 29.1776 87.7401L28.5457 87.9049C28.2767 86.8738 28.044 85.8281 27.849 84.7693L28.4912 84.651C28.4514 84.4349 28.4132 84.2182 28.3766 84.001L27.7326 84.1095C27.5557 83.0592 27.4157 81.9965 27.3142 80.9226L27.9643 80.8611C27.9437 80.6429 27.9247 80.4242 27.9073 80.2051L27.2563 80.2568C27.1721 79.1961 27.1253 78.125 27.1172 77.0447L27.7703 77.0398C27.7694 76.9294 27.769 76.8188 27.769 76.7082C27.769 76.5976 27.7694 76.487 27.7703 76.3766L27.1172 76.3717C27.1253 75.2914 27.1721 74.2203 27.2563 73.1597L27.9073 73.2114C27.9247 72.9922 27.9437 72.7735 27.9643 72.5553L27.3142 72.4939C27.4157 71.42 27.5557 70.3572 27.7326 69.3069L28.3766 69.4154C28.4132 69.1982 28.4514 68.9815 28.4912 68.7654L27.849 68.6471C28.044 67.5883 28.2767 66.5426 28.5457 65.5115L29.1776 65.6763C29.2332 65.463 29.2905 65.2502 29.3493 65.0381L28.72 64.8636C29.0074 63.827 29.3316 62.8055 29.6911 61.8008L30.306 62.0208C30.3801 61.8136 30.4558 61.6072 30.5329 61.4015L29.9215 61.1722C30.299 60.1656 30.7122 59.1764 31.1595 58.2059L31.7526 58.4793C31.8446 58.2797 31.9381 58.0808 32.0331 57.8828L31.4442 57.6005C31.9085 56.632 32.4071 55.6828 32.9383 54.7546L33.5051 55.079C33.6143 54.8881 33.725 54.698 33.8371 54.5089L33.2752 54.176C33.8222 53.2528 34.4018 52.3511 35.0124 51.4724L35.5487 51.845C35.6742 51.6643 35.8011 51.4846 35.9293 51.3059L35.3987 50.9252C36.0237 50.0539 36.6796 49.2061 37.3647 48.3832L37.8666 48.8011C38.0074 48.632 38.1494 48.464 38.2927 48.2971L37.7971 47.8718C38.4951 47.0585 39.2221 46.2707 39.9765 45.5099L40.4403 45.9697C40.5951 45.8135 40.7512 45.6585 40.9084 45.5046L40.4516 45.0379C41.217 44.2887 42.0095 43.5668 42.8274 42.8738L43.2496 43.372C43.4174 43.2298 43.5864 43.0888 43.7564 42.9491L43.3417 42.4446C44.1686 41.7649 45.0205 41.1144 45.8958 40.4945L46.2732 41.0275C46.4527 40.9004 46.6332 40.7745 46.8147 40.6501L46.4453 40.1115C47.3275 39.5064 48.2326 38.9322 49.1591 38.3903L49.4888 38.954C49.6785 38.843 49.8692 38.7334 50.0608 38.6252L49.7396 38.0566C50.6705 37.5307 51.6222 37.0372 52.5933 36.5777L52.8727 37.1679C53.0712 37.074 53.2705 36.9815 53.4706 36.8904L53.2002 36.296C54.1726 35.8536 55.1638 35.4449 56.1723 35.0715L56.399 35.6839C56.605 35.6077 56.8117 35.5329 57.0191 35.4597L56.8016 34.8439C57.8077 34.4885 58.8304 34.1681 59.8682 33.8841L60.0406 34.514C60.2529 34.4558 60.466 34.3993 60.6796 34.3443L60.5168 33.7118C61.5485 33.4461 62.5948 33.2163 63.6541 33.0237L63.7709 33.6663C63.9871 33.627 64.204 33.5892 64.4214 33.5531L64.3142 32.9088C65.3648 32.7341 66.4277 32.596 67.5018 32.4957L67.5625 33.146C67.7808 33.1256 67.9995 33.1068 68.2187 33.0896L68.1677 32.4386C69.2284 32.3554 70.2996 32.3092 71.3799 32.3013L71.3847 32.9543C71.4951 32.9535 71.6057 32.9531 71.7164 32.9531C71.827 32.9531 71.9376 32.9535 72.048 32.9543L72.0528 32.3013C73.1331 32.3092 74.2043 32.3554 75.265 32.4386L75.214 33.0896C75.4332 33.1068 75.652 33.1256 75.8702 33.146L75.9309 32.4957C77.005 32.596 78.068 32.7341 79.1185 32.9088L79.0114 33.5531C79.2287 33.5892 79.4456 33.6269 79.6618 33.6663L79.7787 33.0237C80.838 33.2163 81.8842 33.4461 82.916 33.7118L82.7531 34.3442C82.9668 34.3993 83.1798 34.4558 83.3921 34.514L83.5645 33.8841C84.6024 34.1681 85.6251 34.4885 86.6311 34.8439L86.4136 35.4596C86.621 35.5329 86.8277 35.6077 87.0337 35.6839L87.2605 35.0715C88.2689 35.4449 89.2601 35.8536 90.2325 36.296L89.9621 36.8904C90.1622 36.9815 90.3616 37.074 90.5601 37.1679L90.8394 36.5777C91.8105 37.0372 92.7622 37.5307 93.6931 38.0566L93.3719 38.6252C93.5635 38.7334 93.7542 38.843 93.944 38.954L94.2737 38.3903C95.2002 38.9322 96.1052 39.5064 96.9874 40.1115L96.618 40.65C96.7995 40.7745 96.98 40.9003 97.1595 41.0275L97.5369 40.4945C98.4123 41.1144 99.2642 41.7649 100.091 42.4446L99.6764 42.9491C99.8464 43.0888 100.015 43.2298 100.183 43.372L100.605 42.8738C101.423 43.5668 102.216 44.2887 102.981 45.0379L102.524 45.5046C102.682 45.6585 102.838 45.8135 102.992 45.9697L103.456 45.5099C104.211 46.2707 104.938 47.0585 105.636 47.8718L105.14 48.2971C105.283 48.464 105.425 48.632 105.566 48.8011L106.068 48.3832C106.753 49.2061 107.409 50.0539 108.034 50.9252L107.503 51.3059C107.632 51.4846 107.759 51.6643 107.884 51.845L108.42 51.4723C109.031 52.3511 109.611 53.2528 110.158 54.176L109.596 54.5089C109.708 54.698 109.818 54.888 109.928 55.079L110.494 54.7546C111.026 55.6828 111.524 56.632 111.989 57.6005L111.4 57.8828C111.495 58.0808 111.588 58.2797 111.68 58.4793L112.273 58.2059C112.72 59.1764 113.134 60.1656 113.511 61.1722L112.9 61.4015C112.977 61.6072 113.053 61.8136 113.127 62.0208L113.742 61.8007C114.101 62.8055 114.425 63.827 114.713 64.8636L114.083 65.0381C114.142 65.2502 114.199 65.463 114.255 65.6763L114.887 65.5115C115.156 66.5426 115.389 67.5883 115.584 68.6471L114.942 68.7654C114.981 68.9815 115.02 69.1982 115.056 69.4154L115.7 69.3069C115.877 70.3572 116.017 71.4199 116.119 72.4939L115.468 72.5553C115.489 72.7735 115.508 72.9922 115.525 73.2113L116.176 73.1597C116.261 74.2203 116.307 75.2914 116.316 76.3717L115.662 76.3766C115.663 76.487 115.664 76.5976 115.664 76.7082C115.664 76.8188 115.663 76.9294 115.662 77.0398L116.316 77.0447C116.307 78.125 116.261 79.1961 116.176 80.2568L115.525 80.2051C115.508 80.4242 115.489 80.6429 115.468 80.8611L116.119 80.9225C116.017 81.9964 115.877 83.0592 115.7 84.1095L115.056 84.001C115.02 84.2182 114.981 84.4349 114.942 84.651L115.584 84.7693C115.389 85.8281 115.156 86.8738 114.887 87.9049L114.255 87.7401C114.2 87.9534 114.142 88.1662 114.083 88.3783L114.713 88.5528C114.425 89.5894 114.101 90.6109 113.742 91.6157L113.127 91.3956C113.053 91.6028 112.977 91.8092 112.9 92.0149L113.511 92.2442C113.134 93.2508 112.72 94.24 112.273 95.2105L111.68 94.9371C111.588 95.1367 111.495 95.3356 111.4 95.5336L111.989 95.8159C111.524 96.7844 111.026 97.7336 110.494 98.6618L109.928 98.3374C109.818 98.5284 109.708 98.7184 109.596 98.9075L110.158 99.2404C109.611 100.164 109.031 101.065 108.42 101.944L107.884 101.571C107.759 101.752 107.632 101.932 107.503 102.111L108.034 102.491C107.409 103.362 106.753 104.21 106.068 105.033L105.566 104.615C105.425 104.784 105.283 104.952 105.14 105.119L105.636 105.545C104.938 106.358 104.211 107.146 103.456 107.907L102.992 107.447C102.838 107.603 102.682 107.758 102.524 107.912L102.981 108.378C102.216 109.128 101.423 109.85 100.605 110.543L100.183 110.044C100.015 110.187 99.8464 110.328 99.6764 110.467L100.091 110.972C99.2642 111.651 98.4123 112.302 97.537 112.922L97.1595 112.389C96.98 112.516 96.7995 112.642 96.618 112.766L96.9874 113.305C96.1053 113.91 95.2002 114.484 94.2737 115.026L93.944 114.462C93.7542 114.573 93.5635 114.683 93.3719 114.791L93.6931 115.36C92.7623 115.886 91.8105 116.379 90.8394 116.839L90.5601 116.248C90.3616 116.342 90.1622 116.435 89.9621 116.526L90.2325 117.12C89.2601 117.563 88.2689 117.972 87.2605 118.345L87.0337 117.732C86.8278 117.809 86.6211 117.883 86.4137 117.957L86.6312 118.573C85.6251 118.928 84.6024 119.248 83.5645 119.532L83.3922 118.902C83.1798 118.961 82.9668 119.017 82.7531 119.072L82.916 119.705C81.8842 119.97 80.838 120.2 79.7787 120.393L79.6619 119.75C79.4456 119.789 79.2288 119.827 79.0114 119.863L79.1185 120.508C78.068 120.682 77.005 120.82 75.9309 120.921L75.8703 120.27C75.652 120.291 75.4332 120.31 75.214 120.327L75.2651 120.978C74.2043 121.061 73.1332 121.107 72.0529 121.115L72.0481 120.462C71.9376 120.463 71.827 120.463 71.7164 120.463Z" stroke="#E0E7FF" stroke-width="1.30612" stroke-dasharray="0.65 3.13"/>
<path d="M51.6863 80.8289C49.9297 79.9155 49.0513 78.5013 49.0513 76.5866C49.0513 75.638 49.2885 74.7772 49.7628 74.0043C50.2547 73.2138 50.9837 72.5902 51.9498 72.1334C52.9336 71.6591 54.1281 71.422 55.5334 71.422C56.9388 71.422 58.1245 71.6591 59.0907 72.1334C60.0744 72.5902 60.8034 73.2138 61.2777 74.0043C61.7696 74.7772 62.0155 75.638 62.0155 76.5866C62.0155 77.5527 61.7784 78.4047 61.3041 79.1425C60.8298 79.8628 60.1974 80.4249 59.4069 80.8289C60.3731 81.2505 61.1284 81.8654 61.673 82.6734C62.2176 83.4815 62.4898 84.4389 62.4898 85.5456C62.4898 86.7401 62.1824 87.7853 61.5676 88.6812C60.9703 89.5596 60.1447 90.2359 59.0907 90.7102C58.0367 91.1845 56.8509 91.4216 55.5334 91.4216C54.2159 91.4216 53.0302 91.1845 51.9762 90.7102C50.9398 90.2359 50.1141 89.5596 49.4993 88.6812C48.902 87.7853 48.6034 86.7401 48.6034 85.5456C48.6034 84.4389 48.8757 83.4815 49.4202 82.6734C49.9648 81.8478 50.7202 81.233 51.6863 80.8289ZM58.4319 77.1136C58.4319 76.2528 58.1684 75.5853 57.6414 75.111C57.132 74.6367 56.4293 74.3995 55.5334 74.3995C54.6551 74.3995 53.9524 74.6367 53.4254 75.111C52.916 75.5853 52.6613 76.2616 52.6613 77.1399C52.6613 77.9304 52.9248 78.5628 53.4518 79.0371C53.9964 79.5114 54.6902 79.7486 55.5334 79.7486C56.3766 79.7486 57.0705 79.5114 57.6151 79.0371C58.1597 78.5453 58.4319 77.9041 58.4319 77.1136ZM55.5334 82.4363C54.5321 82.4363 53.7153 82.691 53.0829 83.2004C52.4681 83.7099 52.1606 84.4389 52.1606 85.3875C52.1606 86.2658 52.4593 86.986 53.0565 87.5482C53.6714 88.0927 54.497 88.365 55.5334 88.365C56.5699 88.365 57.3867 88.084 57.984 87.5218C58.5813 86.9597 58.8799 86.2482 58.8799 85.3875C58.8799 84.4564 58.5725 83.7362 57.9576 83.2268C57.3428 82.6998 56.5347 82.4363 55.5334 82.4363ZM74.972 76.5866C74.7964 75.8488 74.489 75.2954 74.0498 74.9265C73.6282 74.5576 73.0134 74.3732 72.2053 74.3732C70.9932 74.3732 70.0973 74.865 69.5176 75.8488C68.9555 76.8149 68.6656 78.3959 68.648 80.5918C69.0696 79.8891 69.6845 79.3445 70.4925 78.9581C71.3006 78.554 72.1789 78.352 73.1275 78.352C74.2694 78.352 75.2795 78.598 76.1578 79.0898C77.0361 79.5817 77.7212 80.3019 78.2131 81.2505C78.705 82.1816 78.9509 83.3058 78.9509 84.6233C78.9509 85.8706 78.6962 86.986 78.1867 87.9698C77.6949 88.9359 76.9659 89.6913 75.9997 90.2359C75.0335 90.7804 73.8829 91.0527 72.5478 91.0527C70.7209 91.0527 69.2804 90.6487 68.2264 89.8406C67.19 89.0326 66.461 87.9083 66.0394 86.4678C65.6354 85.0098 65.4333 83.218 65.4333 81.0924C65.4333 77.8777 65.9867 75.4535 67.0934 73.8198C68.2001 72.1686 69.948 71.3429 72.337 71.3429C74.1815 71.3429 75.6132 71.8436 76.6321 72.8449C77.651 73.8462 78.2394 75.0934 78.3975 76.5866H74.972ZM72.2843 81.3823C71.3533 81.3823 70.5716 81.6546 69.9392 82.1991C69.3068 82.7437 68.9906 83.5342 68.9906 84.5706C68.9906 85.6071 69.2804 86.4239 69.8601 87.0212C70.4574 87.6184 71.2918 87.9171 72.3634 87.9171C73.312 87.9171 74.0586 87.6272 74.6031 87.0475C75.1653 86.4678 75.4463 85.6861 75.4463 84.7024C75.4463 83.6835 75.1741 82.8754 74.6295 82.2782C74.1025 81.6809 73.3208 81.3823 72.2843 81.3823ZM81.053 76.5075C81.053 75.1725 81.4395 74.1272 82.2124 73.3719C83.0029 72.6165 84.013 72.2388 85.2427 72.2388C86.4724 72.2388 87.4737 72.6165 88.2466 73.3719C89.0371 74.1272 89.4323 75.1725 89.4323 76.5075C89.4323 77.8602 89.0371 78.9142 88.2466 79.6695C87.4737 80.4249 86.4724 80.8026 85.2427 80.8026C84.013 80.8026 83.0029 80.4249 82.2124 79.6695C81.4395 78.9142 81.053 77.8602 81.053 76.5075ZM97.9697 72.555L87.6142 91H84.0306L94.3598 72.555H97.9697ZM85.2163 74.4522C84.2502 74.4522 83.7671 75.1373 83.7671 76.5075C83.7671 77.8953 84.2502 78.5892 85.2163 78.5892C85.6906 78.5892 86.0595 78.4223 86.323 78.0885C86.5865 77.7372 86.7183 77.2102 86.7183 76.5075C86.7183 75.1373 86.2176 74.4522 85.2163 74.4522ZM92.6207 87.0212C92.6207 85.6685 93.0072 84.6233 93.7801 83.8855C94.5706 83.1302 95.5807 82.7525 96.8103 82.7525C98.04 82.7525 99.0325 83.1302 99.7879 83.8855C100.561 84.6233 100.947 85.6685 100.947 87.0212C100.947 88.3738 100.561 89.4278 99.7879 90.1832C99.0325 90.9385 98.04 91.3162 96.8103 91.3162C95.5631 91.3162 94.553 90.9385 93.7801 90.1832C93.0072 89.4278 92.6207 88.3738 92.6207 87.0212ZM96.784 84.9659C95.7827 84.9659 95.282 85.651 95.282 87.0212C95.282 88.4089 95.7827 89.1028 96.784 89.1028C97.7677 89.1028 98.2596 88.4089 98.2596 87.0212C98.2596 85.651 97.7677 84.9659 96.784 84.9659Z" fill="white"/>
</g>
<defs>
<clipPath id="clip0_112_4692">
<rect width="146.939" height="101.878" fill="white" transform="translate(0.224487 0.561279)"/>
</clipPath>
</defs>
</svg>
