<svg width="502" height="218" viewBox="0 0 502 218" fill="none" xmlns="http://www.w3.org/2000/svg">
<path opacity="0.4" d="M34.28 208.03V213.18C34.28 213.753 34.1033 214.213 33.75 214.56C33.3967 214.9 32.93 215.07 32.35 215.07C31.7633 215.07 31.2933 214.897 30.94 214.55C30.5867 214.197 30.41 213.717 30.41 213.11H31.32C31.3267 213.45 31.4133 213.727 31.58 213.94C31.7533 214.153 32.01 214.26 32.35 214.26C32.69 214.26 32.9433 214.16 33.11 213.96C33.2767 213.753 33.36 213.493 33.36 213.18V208.03H34.28ZM35.7327 212.24C35.7327 211.68 35.8461 211.19 36.0727 210.77C36.2994 210.343 36.6094 210.013 37.0027 209.78C37.4027 209.547 37.8461 209.43 38.3327 209.43C38.8127 209.43 39.2294 209.533 39.5827 209.74C39.9361 209.947 40.1994 210.207 40.3727 210.52V209.52H41.2927V215H40.3727V213.98C40.1927 214.3 39.9227 214.567 39.5627 214.78C39.2094 214.987 38.7961 215.09 38.3227 215.09C37.8361 215.09 37.3961 214.97 37.0027 214.73C36.6094 214.49 36.2994 214.153 36.0727 213.72C35.8461 213.287 35.7327 212.793 35.7327 212.24ZM40.3727 212.25C40.3727 211.837 40.2894 211.477 40.1227 211.17C39.9561 210.863 39.7294 210.63 39.4427 210.47C39.1627 210.303 38.8527 210.22 38.5127 210.22C38.1727 210.22 37.8627 210.3 37.5827 210.46C37.3027 210.62 37.0794 210.853 36.9127 211.16C36.7461 211.467 36.6627 211.827 36.6627 212.24C36.6627 212.66 36.7461 213.027 36.9127 213.34C37.0794 213.647 37.3027 213.883 37.5827 214.05C37.8627 214.21 38.1727 214.29 38.5127 214.29C38.8527 214.29 39.1627 214.21 39.4427 214.05C39.7294 213.883 39.9561 213.647 40.1227 213.34C40.2894 213.027 40.3727 212.663 40.3727 212.25ZM45.5005 209.42C46.1672 209.42 46.7072 209.623 47.1205 210.03C47.5339 210.43 47.7405 211.01 47.7405 211.77V215H46.8405V211.9C46.8405 211.353 46.7039 210.937 46.4305 210.65C46.1572 210.357 45.7839 210.21 45.3105 210.21C44.8305 210.21 44.4472 210.36 44.1605 210.66C43.8805 210.96 43.7405 211.397 43.7405 211.97V215H42.8305V209.52H43.7405V210.3C43.9205 210.02 44.1639 209.803 44.4705 209.65C44.7839 209.497 45.1272 209.42 45.5005 209.42Z" fill="white"/>
<path opacity="0.4" d="M0.91125 155.6V154.77H2.79125V162H1.87125V155.6H0.91125ZM4.35438 158.31C4.35438 157.163 4.54104 156.27 4.91438 155.63C5.28771 154.983 5.94104 154.66 6.87438 154.66C7.80104 154.66 8.45104 154.983 8.82438 155.63C9.19771 156.27 9.38437 157.163 9.38437 158.31C9.38437 159.477 9.19771 160.383 8.82438 161.03C8.45104 161.677 7.80104 162 6.87438 162C5.94104 162 5.28771 161.677 4.91438 161.03C4.54104 160.383 4.35438 159.477 4.35438 158.31ZM8.48438 158.31C8.48438 157.73 8.44438 157.24 8.36438 156.84C8.29104 156.433 8.13438 156.107 7.89438 155.86C7.66104 155.613 7.32104 155.49 6.87438 155.49C6.42104 155.49 6.07438 155.613 5.83438 155.86C5.60104 156.107 5.44438 156.433 5.36438 156.84C5.29104 157.24 5.25438 157.73 5.25438 158.31C5.25438 158.91 5.29104 159.413 5.36438 159.82C5.44438 160.227 5.60104 160.553 5.83438 160.8C6.07438 161.047 6.42104 161.17 6.87438 161.17C7.32104 161.17 7.66104 161.047 7.89438 160.8C8.13438 160.553 8.29104 160.227 8.36438 159.82C8.44438 159.413 8.48438 158.91 8.48438 158.31Z" fill="white"/>
<path opacity="0.4" d="M1.04125 126.27C1.88792 125.59 2.55125 125.033 3.03125 124.6C3.51125 124.16 3.91458 123.703 4.24125 123.23C4.57458 122.75 4.74125 122.28 4.74125 121.82C4.74125 121.387 4.63458 121.047 4.42125 120.8C4.21458 120.547 3.87792 120.42 3.41125 120.42C2.95792 120.42 2.60458 120.563 2.35125 120.85C2.10458 121.13 1.97125 121.507 1.95125 121.98H1.07125C1.09792 121.233 1.32458 120.657 1.75125 120.25C2.17792 119.843 2.72792 119.64 3.40125 119.64C4.08792 119.64 4.63125 119.83 5.03125 120.21C5.43792 120.59 5.64125 121.113 5.64125 121.78C5.64125 122.333 5.47458 122.873 5.14125 123.4C4.81458 123.92 4.44125 124.38 4.02125 124.78C3.60125 125.173 3.06458 125.633 2.41125 126.16H5.85125V126.92H1.04125V126.27ZM6.9032 123.31C6.9032 122.163 7.08987 121.27 7.4632 120.63C7.83654 119.983 8.48987 119.66 9.4232 119.66C10.3499 119.66 10.9999 119.983 11.3732 120.63C11.7465 121.27 11.9332 122.163 11.9332 123.31C11.9332 124.477 11.7465 125.383 11.3732 126.03C10.9999 126.677 10.3499 127 9.4232 127C8.48987 127 7.83654 126.677 7.4632 126.03C7.08987 125.383 6.9032 124.477 6.9032 123.31ZM11.0332 123.31C11.0332 122.73 10.9932 122.24 10.9132 121.84C10.8399 121.433 10.6832 121.107 10.4432 120.86C10.2099 120.613 9.86987 120.49 9.4232 120.49C8.96987 120.49 8.6232 120.613 8.3832 120.86C8.14987 121.107 7.9932 121.433 7.9132 121.84C7.83987 122.24 7.8032 122.73 7.8032 123.31C7.8032 123.91 7.83987 124.413 7.9132 124.82C7.9932 125.227 8.14987 125.553 8.3832 125.8C8.6232 126.047 8.96987 126.17 9.4232 126.17C9.86987 126.17 10.2099 126.047 10.4432 125.8C10.6832 125.553 10.8399 125.227 10.9132 124.82C10.9932 124.413 11.0332 123.91 11.0332 123.31Z" fill="white"/>
<path opacity="0.4" d="M1.13125 84.59C1.17792 83.9767 1.41458 83.4967 1.84125 83.15C2.26792 82.8033 2.82125 82.63 3.50125 82.63C3.95458 82.63 4.34458 82.7133 4.67125 82.88C5.00458 83.04 5.25458 83.26 5.42125 83.54C5.59458 83.82 5.68125 84.1367 5.68125 84.49C5.68125 84.9033 5.56125 85.26 5.32125 85.56C5.08792 85.86 4.78125 86.0533 4.40125 86.14V86.19C4.83458 86.2967 5.17792 86.5067 5.43125 86.82C5.68458 87.1333 5.81125 87.5433 5.81125 88.05C5.81125 88.43 5.72458 88.7733 5.55125 89.08C5.37792 89.38 5.11792 89.6167 4.77125 89.79C4.42458 89.9633 4.00792 90.05 3.52125 90.05C2.81458 90.05 2.23458 89.8667 1.78125 89.5C1.32792 89.1267 1.07458 88.6 1.02125 87.92H1.90125C1.94792 88.32 2.11125 88.6467 2.39125 88.9C2.67125 89.1533 3.04458 89.28 3.51125 89.28C3.97792 89.28 4.33125 89.16 4.57125 88.92C4.81792 88.6733 4.94125 88.3567 4.94125 87.97C4.94125 87.47 4.77458 87.11 4.44125 86.89C4.10792 86.67 3.60458 86.56 2.93125 86.56H2.70125V85.8H2.94125C3.55458 85.7933 4.01792 85.6933 4.33125 85.5C4.64458 85.3 4.80125 84.9933 4.80125 84.58C4.80125 84.2267 4.68458 83.9433 4.45125 83.73C4.22458 83.5167 3.89792 83.41 3.47125 83.41C3.05792 83.41 2.72458 83.5167 2.47125 83.73C2.21792 83.9433 2.06792 84.23 2.02125 84.59H1.13125ZM7.03992 86.31C7.03992 85.1633 7.22659 84.27 7.59992 83.63C7.97326 82.9833 8.62659 82.66 9.55992 82.66C10.4866 82.66 11.1366 82.9833 11.5099 83.63C11.8833 84.27 12.0699 85.1633 12.0699 86.31C12.0699 87.4767 11.8833 88.3833 11.5099 89.03C11.1366 89.6767 10.4866 90 9.55992 90C8.62659 90 7.97326 89.6767 7.59992 89.03C7.22659 88.3833 7.03992 87.4767 7.03992 86.31ZM11.1699 86.31C11.1699 85.73 11.1299 85.24 11.0499 84.84C10.9766 84.4333 10.8199 84.1067 10.5799 83.86C10.3466 83.6133 10.0066 83.49 9.55992 83.49C9.10659 83.49 8.75992 83.6133 8.51992 83.86C8.28659 84.1067 8.12992 84.4333 8.04992 84.84C7.97659 85.24 7.93992 85.73 7.93992 86.31C7.93992 86.91 7.97659 87.4133 8.04992 87.82C8.12992 88.2267 8.28659 88.5533 8.51992 88.8C8.75992 89.0467 9.10659 89.17 9.55992 89.17C10.0066 89.17 10.3466 89.0467 10.5799 88.8C10.8199 88.5533 10.9766 88.2267 11.0499 87.82C11.1299 87.4133 11.1699 86.91 11.1699 86.31Z" fill="white"/>
<path opacity="0.4" d="M0.93125 53.39V52.7L4.44125 47.84H5.53125V52.6H6.53125V53.39H5.53125V55H4.63125V53.39H0.93125ZM4.67125 48.79L1.98125 52.6H4.67125V48.79ZM7.44031 51.31C7.44031 50.1633 7.62698 49.27 8.00031 48.63C8.37365 47.9833 9.02698 47.66 9.96031 47.66C10.887 47.66 11.537 47.9833 11.9103 48.63C12.2836 49.27 12.4703 50.1633 12.4703 51.31C12.4703 52.4767 12.2836 53.3833 11.9103 54.03C11.537 54.6767 10.887 55 9.96031 55C9.02698 55 8.37365 54.6767 8.00031 54.03C7.62698 53.3833 7.44031 52.4767 7.44031 51.31ZM11.5703 51.31C11.5703 50.73 11.5303 50.24 11.4503 49.84C11.377 49.4333 11.2203 49.1067 10.9803 48.86C10.747 48.6133 10.407 48.49 9.96031 48.49C9.50698 48.49 9.16031 48.6133 8.92031 48.86C8.68698 49.1067 8.53031 49.4333 8.45031 49.84C8.37698 50.24 8.34031 50.73 8.34031 51.31C8.34031 51.91 8.37698 52.4133 8.45031 52.82C8.53031 53.2267 8.68698 53.5533 8.92031 53.8C9.16031 54.0467 9.50698 54.17 9.96031 54.17C10.407 54.17 10.747 54.0467 10.9803 53.8C11.2203 53.5533 11.377 53.2267 11.4503 52.82C11.5303 52.4133 11.5703 51.91 11.5703 51.31Z" fill="white"/>
<path opacity="0.4" d="M5.76125 17.56H2.25125V19.84C2.40458 19.6267 2.63125 19.4533 2.93125 19.32C3.23125 19.18 3.55458 19.11 3.90125 19.11C4.45458 19.11 4.90458 19.2267 5.25125 19.46C5.59792 19.6867 5.84458 19.9833 5.99125 20.35C6.14458 20.71 6.22125 21.0933 6.22125 21.5C6.22125 21.98 6.13125 22.41 5.95125 22.79C5.77125 23.17 5.49458 23.47 5.12125 23.69C4.75458 23.91 4.29792 24.02 3.75125 24.02C3.05125 24.02 2.48458 23.84 2.05125 23.48C1.61792 23.12 1.35458 22.64 1.26125 22.04H2.15125C2.23792 22.42 2.42125 22.7167 2.70125 22.93C2.98125 23.1433 3.33458 23.25 3.76125 23.25C4.28792 23.25 4.68458 23.0933 4.95125 22.78C5.21792 22.46 5.35125 22.04 5.35125 21.52C5.35125 21 5.21792 20.6 4.95125 20.32C4.68458 20.0333 4.29125 19.89 3.77125 19.89C3.41792 19.89 3.10792 19.9767 2.84125 20.15C2.58125 20.3167 2.39125 20.5467 2.27125 20.84H1.41125V16.76H5.76125V17.56ZM7.43055 20.31C7.43055 19.1633 7.61721 18.27 7.99055 17.63C8.36388 16.9833 9.01721 16.66 9.95055 16.66C10.8772 16.66 11.5272 16.9833 11.9005 17.63C12.2739 18.27 12.4605 19.1633 12.4605 20.31C12.4605 21.4767 12.2739 22.3833 11.9005 23.03C11.5272 23.6767 10.8772 24 9.95055 24C9.01721 24 8.36388 23.6767 7.99055 23.03C7.61721 22.3833 7.43055 21.4767 7.43055 20.31ZM11.5605 20.31C11.5605 19.73 11.5205 19.24 11.4405 18.84C11.3672 18.4333 11.2105 18.1067 10.9705 17.86C10.7372 17.6133 10.3972 17.49 9.95055 17.49C9.49721 17.49 9.15055 17.6133 8.91055 17.86C8.67721 18.1067 8.52055 18.4333 8.44055 18.84C8.36721 19.24 8.33055 19.73 8.33055 20.31C8.33055 20.91 8.36721 21.4133 8.44055 21.82C8.52055 22.2267 8.67721 22.5533 8.91055 22.8C9.15055 23.0467 9.49721 23.17 9.95055 23.17C10.3972 23.17 10.7372 23.0467 10.9705 22.8C11.2105 22.5533 11.3672 22.2267 11.4405 21.82C11.5205 21.4133 11.5605 20.91 11.5605 20.31Z" fill="white"/>
<path opacity="0.4" d="M84.71 208.03V208.77H81.68V211.12H84.14V211.86H81.68V215H80.77V208.03H84.71ZM90.8091 212.05C90.8091 212.223 90.7991 212.407 90.7791 212.6H86.3991C86.4324 213.14 86.6157 213.563 86.9491 213.87C87.2891 214.17 87.6991 214.32 88.1791 214.32C88.5724 214.32 88.8991 214.23 89.1591 214.05C89.4257 213.863 89.6124 213.617 89.7191 213.31H90.6991C90.5524 213.837 90.2591 214.267 89.8191 214.6C89.3791 214.927 88.8324 215.09 88.1791 215.09C87.6591 215.09 87.1924 214.973 86.7791 214.74C86.3724 214.507 86.0524 214.177 85.8191 213.75C85.5857 213.317 85.4691 212.817 85.4691 212.25C85.4691 211.683 85.5824 211.187 85.8091 210.76C86.0357 210.333 86.3524 210.007 86.7591 209.78C87.1724 209.547 87.6457 209.43 88.1791 209.43C88.6991 209.43 89.1591 209.543 89.5591 209.77C89.9591 209.997 90.2657 210.31 90.4791 210.71C90.6991 211.103 90.8091 211.55 90.8091 212.05ZM89.8691 211.86C89.8691 211.513 89.7924 211.217 89.6391 210.97C89.4857 210.717 89.2757 210.527 89.0091 210.4C88.7491 210.267 88.4591 210.2 88.1391 210.2C87.6791 210.2 87.2857 210.347 86.9591 210.64C86.6391 210.933 86.4557 211.34 86.4091 211.86H89.8691ZM92.9202 210.54C93.1069 210.213 93.3802 209.947 93.7402 209.74C94.1002 209.533 94.5102 209.43 94.9702 209.43C95.4636 209.43 95.9069 209.547 96.3002 209.78C96.6936 210.013 97.0036 210.343 97.2302 210.77C97.4569 211.19 97.5702 211.68 97.5702 212.24C97.5702 212.793 97.4569 213.287 97.2302 213.72C97.0036 214.153 96.6902 214.49 96.2902 214.73C95.8969 214.97 95.4569 215.09 94.9702 215.09C94.4969 215.09 94.0802 214.987 93.7202 214.78C93.3669 214.573 93.1002 214.31 92.9202 213.99V215H92.0102V207.6H92.9202V210.54ZM96.6402 212.24C96.6402 211.827 96.5569 211.467 96.3902 211.16C96.2236 210.853 95.9969 210.62 95.7102 210.46C95.4302 210.3 95.1202 210.22 94.7802 210.22C94.4469 210.22 94.1369 210.303 93.8502 210.47C93.5702 210.63 93.3436 210.867 93.1702 211.18C93.0036 211.487 92.9202 211.843 92.9202 212.25C92.9202 212.663 93.0036 213.027 93.1702 213.34C93.3436 213.647 93.5702 213.883 93.8502 214.05C94.1369 214.21 94.4469 214.29 94.7802 214.29C95.1202 214.29 95.4302 214.21 95.7102 214.05C95.9969 213.883 96.2236 213.647 96.3902 213.34C96.5569 213.027 96.6402 212.66 96.6402 212.24Z" fill="white"/>
<path opacity="0.4" d="M133.84 208.08V215H132.93V209.84L130.63 215H129.99L127.68 209.83V215H126.77V208.08H127.75L130.31 213.8L132.87 208.08H133.84ZM135.043 212.24C135.043 211.68 135.157 211.19 135.383 210.77C135.61 210.343 135.92 210.013 136.313 209.78C136.713 209.547 137.157 209.43 137.643 209.43C138.123 209.43 138.54 209.533 138.893 209.74C139.247 209.947 139.51 210.207 139.683 210.52V209.52H140.603V215H139.683V213.98C139.503 214.3 139.233 214.567 138.873 214.78C138.52 214.987 138.107 215.09 137.633 215.09C137.147 215.09 136.707 214.97 136.313 214.73C135.92 214.49 135.61 214.153 135.383 213.72C135.157 213.287 135.043 212.793 135.043 212.24ZM139.683 212.25C139.683 211.837 139.6 211.477 139.433 211.17C139.267 210.863 139.04 210.63 138.753 210.47C138.473 210.303 138.163 210.22 137.823 210.22C137.483 210.22 137.173 210.3 136.893 210.46C136.613 210.62 136.39 210.853 136.223 211.16C136.057 211.467 135.973 211.827 135.973 212.24C135.973 212.66 136.057 213.027 136.223 213.34C136.39 213.647 136.613 213.883 136.893 214.05C137.173 214.21 137.483 214.29 137.823 214.29C138.163 214.29 138.473 214.21 138.753 214.05C139.04 213.883 139.267 213.647 139.433 213.34C139.6 213.027 139.683 212.663 139.683 212.25ZM143.051 210.41C143.211 210.097 143.438 209.853 143.731 209.68C144.031 209.507 144.394 209.42 144.821 209.42V210.36H144.581C143.561 210.36 143.051 210.913 143.051 212.02V215H142.141V209.52H143.051V210.41Z" fill="white"/>
<path opacity="0.4" d="M230.84 208.08V215H229.93V209.84L227.63 215H226.99L224.68 209.83V215H223.77V208.08H224.75L227.31 213.8L229.87 208.08H230.84ZM232.043 212.24C232.043 211.68 232.157 211.19 232.383 210.77C232.61 210.343 232.92 210.013 233.313 209.78C233.713 209.547 234.157 209.43 234.643 209.43C235.123 209.43 235.54 209.533 235.893 209.74C236.247 209.947 236.51 210.207 236.683 210.52V209.52H237.603V215H236.683V213.98C236.503 214.3 236.233 214.567 235.873 214.78C235.52 214.987 235.107 215.09 234.633 215.09C234.147 215.09 233.707 214.97 233.313 214.73C232.92 214.49 232.61 214.153 232.383 213.72C232.157 213.287 232.043 212.793 232.043 212.24ZM236.683 212.25C236.683 211.837 236.6 211.477 236.433 211.17C236.267 210.863 236.04 210.63 235.753 210.47C235.473 210.303 235.163 210.22 234.823 210.22C234.483 210.22 234.173 210.3 233.893 210.46C233.613 210.62 233.39 210.853 233.223 211.16C233.057 211.467 232.973 211.827 232.973 212.24C232.973 212.66 233.057 213.027 233.223 213.34C233.39 213.647 233.613 213.883 233.893 214.05C234.173 214.21 234.483 214.29 234.823 214.29C235.163 214.29 235.473 214.21 235.753 214.05C236.04 213.883 236.267 213.647 236.433 213.34C236.6 213.027 236.683 212.663 236.683 212.25ZM243.861 209.52L240.561 217.58H239.621L240.701 214.94L238.491 209.52H239.501L241.221 213.96L242.921 209.52H243.861Z" fill="white"/>
<path opacity="0.4" d="M177.89 213.45H174.85L174.29 215H173.33L175.85 208.07H176.9L179.41 215H178.45L177.89 213.45ZM177.63 212.71L176.37 209.19L175.11 212.71H177.63ZM181.418 210.53C181.598 210.217 181.865 209.957 182.218 209.75C182.578 209.537 182.995 209.43 183.468 209.43C183.955 209.43 184.395 209.547 184.788 209.78C185.188 210.013 185.502 210.343 185.728 210.77C185.955 211.19 186.068 211.68 186.068 212.24C186.068 212.793 185.955 213.287 185.728 213.72C185.502 214.153 185.188 214.49 184.788 214.73C184.395 214.97 183.955 215.09 183.468 215.09C183.002 215.09 182.588 214.987 182.228 214.78C181.875 214.567 181.605 214.303 181.418 213.99V217.6H180.508V209.52H181.418V210.53ZM185.138 212.24C185.138 211.827 185.055 211.467 184.888 211.16C184.722 210.853 184.495 210.62 184.208 210.46C183.928 210.3 183.618 210.22 183.278 210.22C182.945 210.22 182.635 210.303 182.348 210.47C182.068 210.63 181.842 210.867 181.668 211.18C181.502 211.487 181.418 211.843 181.418 212.25C181.418 212.663 181.502 213.027 181.668 213.34C181.842 213.647 182.068 213.883 182.348 214.05C182.635 214.21 182.945 214.29 183.278 214.29C183.618 214.29 183.928 214.21 184.208 214.05C184.495 213.883 184.722 213.647 184.888 213.34C185.055 213.027 185.138 212.66 185.138 212.24ZM188.176 210.41C188.336 210.097 188.563 209.853 188.856 209.68C189.156 209.507 189.519 209.42 189.946 209.42V210.36H189.706C188.686 210.36 188.176 210.913 188.176 212.02V215H187.266V209.52H188.176V210.41Z" fill="white"/>
<path opacity="0.4" d="M275.28 208.03V213.18C275.28 213.753 275.103 214.213 274.75 214.56C274.397 214.9 273.93 215.07 273.35 215.07C272.763 215.07 272.293 214.897 271.94 214.55C271.587 214.197 271.41 213.717 271.41 213.11H272.32C272.327 213.45 272.413 213.727 272.58 213.94C272.753 214.153 273.01 214.26 273.35 214.26C273.69 214.26 273.943 214.16 274.11 213.96C274.277 213.753 274.36 213.493 274.36 213.18V208.03H275.28ZM281.933 209.52V215H281.023V214.19C280.849 214.47 280.606 214.69 280.293 214.85C279.986 215.003 279.646 215.08 279.273 215.08C278.846 215.08 278.463 214.993 278.123 214.82C277.783 214.64 277.513 214.373 277.313 214.02C277.119 213.667 277.023 213.237 277.023 212.73V209.52H277.923V212.61C277.923 213.15 278.059 213.567 278.333 213.86C278.606 214.147 278.979 214.29 279.453 214.29C279.939 214.29 280.323 214.14 280.603 213.84C280.883 213.54 281.023 213.103 281.023 212.53V209.52H281.933ZM286.139 209.42C286.806 209.42 287.346 209.623 287.759 210.03C288.173 210.43 288.379 211.01 288.379 211.77V215H287.479V211.9C287.479 211.353 287.343 210.937 287.069 210.65C286.796 210.357 286.423 210.21 285.949 210.21C285.469 210.21 285.086 210.36 284.799 210.66C284.519 210.96 284.379 211.397 284.379 211.97V215H283.469V209.52H284.379V210.3C284.559 210.02 284.803 209.803 285.109 209.65C285.423 209.497 285.766 209.42 286.139 209.42Z" fill="white"/>
<path opacity="0.4" d="M322.28 208.03V213.18C322.28 213.753 322.103 214.213 321.75 214.56C321.397 214.9 320.93 215.07 320.35 215.07C319.763 215.07 319.293 214.897 318.94 214.55C318.587 214.197 318.41 213.717 318.41 213.11H319.32C319.327 213.45 319.413 213.727 319.58 213.94C319.753 214.153 320.01 214.26 320.35 214.26C320.69 214.26 320.943 214.16 321.11 213.96C321.277 213.753 321.36 213.493 321.36 213.18V208.03H322.28ZM328.933 209.52V215H328.023V214.19C327.849 214.47 327.606 214.69 327.293 214.85C326.986 215.003 326.646 215.08 326.273 215.08C325.846 215.08 325.463 214.993 325.123 214.82C324.783 214.64 324.513 214.373 324.313 214.02C324.119 213.667 324.023 213.237 324.023 212.73V209.52H324.923V212.61C324.923 213.15 325.059 213.567 325.333 213.86C325.606 214.147 325.979 214.29 326.453 214.29C326.939 214.29 327.323 214.14 327.603 213.84C327.883 213.54 328.023 213.103 328.023 212.53V209.52H328.933ZM331.379 207.6V215H330.469V207.6H331.379Z" fill="white"/>
<path opacity="0.4" d="M365.89 213.45H362.85L362.29 215H361.33L363.85 208.07H364.9L367.41 215H366.45L365.89 213.45ZM365.63 212.71L364.37 209.19L363.11 212.71H365.63ZM373.368 209.52V215H372.458V214.19C372.285 214.47 372.042 214.69 371.728 214.85C371.422 215.003 371.082 215.08 370.708 215.08C370.282 215.08 369.898 214.993 369.558 214.82C369.218 214.64 368.948 214.373 368.748 214.02C368.555 213.667 368.458 213.237 368.458 212.73V209.52H369.358V212.61C369.358 213.15 369.495 213.567 369.768 213.86C370.042 214.147 370.415 214.29 370.888 214.29C371.375 214.29 371.758 214.14 372.038 213.84C372.318 213.54 372.458 213.103 372.458 212.53V209.52H373.368ZM377.165 209.43C377.638 209.43 378.051 209.533 378.405 209.74C378.765 209.947 379.031 210.207 379.205 210.52V209.52H380.125V215.12C380.125 215.62 380.018 216.063 379.805 216.45C379.591 216.843 379.285 217.15 378.885 217.37C378.491 217.59 378.031 217.7 377.505 217.7C376.785 217.7 376.185 217.53 375.705 217.19C375.225 216.85 374.941 216.387 374.855 215.8H375.755C375.855 216.133 376.061 216.4 376.375 216.6C376.688 216.807 377.065 216.91 377.505 216.91C378.005 216.91 378.411 216.753 378.725 216.44C379.045 216.127 379.205 215.687 379.205 215.12V213.97C379.025 214.29 378.758 214.557 378.405 214.77C378.051 214.983 377.638 215.09 377.165 215.09C376.678 215.09 376.235 214.97 375.835 214.73C375.441 214.49 375.131 214.153 374.905 213.72C374.678 213.287 374.565 212.793 374.565 212.24C374.565 211.68 374.678 211.19 374.905 210.77C375.131 210.343 375.441 210.013 375.835 209.78C376.235 209.547 376.678 209.43 377.165 209.43ZM379.205 212.25C379.205 211.837 379.121 211.477 378.955 211.17C378.788 210.863 378.561 210.63 378.275 210.47C377.995 210.303 377.685 210.22 377.345 210.22C377.005 210.22 376.695 210.3 376.415 210.46C376.135 210.62 375.911 210.853 375.745 211.16C375.578 211.467 375.495 211.827 375.495 212.24C375.495 212.66 375.578 213.027 375.745 213.34C375.911 213.647 376.135 213.883 376.415 214.05C376.695 214.21 377.005 214.29 377.345 214.29C377.685 214.29 377.995 214.21 378.275 214.05C378.561 213.883 378.788 213.647 378.955 213.34C379.121 213.027 379.205 212.663 379.205 212.25Z" fill="white"/>
<path opacity="0.4" d="M412.98 215.07C412.52 215.07 412.107 214.99 411.74 214.83C411.38 214.663 411.097 214.437 410.89 214.15C410.683 213.857 410.577 213.52 410.57 213.14H411.54C411.573 213.467 411.707 213.743 411.94 213.97C412.18 214.19 412.527 214.3 412.98 214.3C413.413 214.3 413.753 214.193 414 213.98C414.253 213.76 414.38 213.48 414.38 213.14C414.38 212.873 414.307 212.657 414.16 212.49C414.013 212.323 413.83 212.197 413.61 212.11C413.39 212.023 413.093 211.93 412.72 211.83C412.26 211.71 411.89 211.59 411.61 211.47C411.337 211.35 411.1 211.163 410.9 210.91C410.707 210.65 410.61 210.303 410.61 209.87C410.61 209.49 410.707 209.153 410.9 208.86C411.093 208.567 411.363 208.34 411.71 208.18C412.063 208.02 412.467 207.94 412.92 207.94C413.573 207.94 414.107 208.103 414.52 208.43C414.94 208.757 415.177 209.19 415.23 209.73H414.23C414.197 209.463 414.057 209.23 413.81 209.03C413.563 208.823 413.237 208.72 412.83 208.72C412.45 208.72 412.14 208.82 411.9 209.02C411.66 209.213 411.54 209.487 411.54 209.84C411.54 210.093 411.61 210.3 411.75 210.46C411.897 210.62 412.073 210.743 412.28 210.83C412.493 210.91 412.79 211.003 413.17 211.11C413.63 211.237 414 211.363 414.28 211.49C414.56 211.61 414.8 211.8 415 212.06C415.2 212.313 415.3 212.66 415.3 213.1C415.3 213.44 415.21 213.76 415.03 214.06C414.85 214.36 414.583 214.603 414.23 214.79C413.877 214.977 413.46 215.07 412.98 215.07ZM421.639 212.05C421.639 212.223 421.629 212.407 421.609 212.6H417.229C417.262 213.14 417.446 213.563 417.779 213.87C418.119 214.17 418.529 214.32 419.009 214.32C419.402 214.32 419.729 214.23 419.989 214.05C420.256 213.863 420.442 213.617 420.549 213.31H421.529C421.382 213.837 421.089 214.267 420.649 214.6C420.209 214.927 419.662 215.09 419.009 215.09C418.489 215.09 418.022 214.973 417.609 214.74C417.202 214.507 416.882 214.177 416.649 213.75C416.416 213.317 416.299 212.817 416.299 212.25C416.299 211.683 416.412 211.187 416.639 210.76C416.866 210.333 417.182 210.007 417.589 209.78C418.002 209.547 418.476 209.43 419.009 209.43C419.529 209.43 419.989 209.543 420.389 209.77C420.789 209.997 421.096 210.31 421.309 210.71C421.529 211.103 421.639 211.55 421.639 212.05ZM420.699 211.86C420.699 211.513 420.622 211.217 420.469 210.97C420.316 210.717 420.106 210.527 419.839 210.4C419.579 210.267 419.289 210.2 418.969 210.2C418.509 210.2 418.116 210.347 417.789 210.64C417.469 210.933 417.286 211.34 417.239 211.86H420.699ZM423.75 210.53C423.93 210.217 424.197 209.957 424.55 209.75C424.91 209.537 425.327 209.43 425.8 209.43C426.287 209.43 426.727 209.547 427.12 209.78C427.52 210.013 427.834 210.343 428.06 210.77C428.287 211.19 428.4 211.68 428.4 212.24C428.4 212.793 428.287 213.287 428.06 213.72C427.834 214.153 427.52 214.49 427.12 214.73C426.727 214.97 426.287 215.09 425.8 215.09C425.334 215.09 424.92 214.987 424.56 214.78C424.207 214.567 423.937 214.303 423.75 213.99V217.6H422.84V209.52H423.75V210.53ZM427.47 212.24C427.47 211.827 427.387 211.467 427.22 211.16C427.054 210.853 426.827 210.62 426.54 210.46C426.26 210.3 425.95 210.22 425.61 210.22C425.277 210.22 424.967 210.303 424.68 210.47C424.4 210.63 424.174 210.867 424 211.18C423.834 211.487 423.75 211.843 423.75 212.25C423.75 212.663 423.834 213.027 424 213.34C424.174 213.647 424.4 213.883 424.68 214.05C424.967 214.21 425.277 214.29 425.61 214.29C425.95 214.29 426.26 214.21 426.54 214.05C426.827 213.883 427.054 213.647 427.22 213.34C427.387 213.027 427.47 212.66 427.47 212.24Z" fill="white"/>
<path opacity="0.4" d="M462.93 215.07C462.283 215.07 461.693 214.92 461.16 214.62C460.627 214.313 460.203 213.89 459.89 213.35C459.583 212.803 459.43 212.19 459.43 211.51C459.43 210.83 459.583 210.22 459.89 209.68C460.203 209.133 460.627 208.71 461.16 208.41C461.693 208.103 462.283 207.95 462.93 207.95C463.583 207.95 464.177 208.103 464.71 208.41C465.243 208.71 465.663 209.13 465.97 209.67C466.277 210.21 466.43 210.823 466.43 211.51C466.43 212.197 466.277 212.81 465.97 213.35C465.663 213.89 465.243 214.313 464.71 214.62C464.177 214.92 463.583 215.07 462.93 215.07ZM462.93 214.28C463.417 214.28 463.853 214.167 464.24 213.94C464.633 213.713 464.94 213.39 465.16 212.97C465.387 212.55 465.5 212.063 465.5 211.51C465.5 210.95 465.387 210.463 465.16 210.05C464.94 209.63 464.637 209.307 464.25 209.08C463.863 208.853 463.423 208.74 462.93 208.74C462.437 208.74 461.997 208.853 461.61 209.08C461.223 209.307 460.917 209.63 460.69 210.05C460.47 210.463 460.36 210.95 460.36 211.51C460.36 212.063 460.47 212.55 460.69 212.97C460.917 213.39 461.223 213.713 461.61 213.94C462.003 214.167 462.443 214.28 462.93 214.28ZM467.291 212.25C467.291 211.683 467.405 211.19 467.631 210.77C467.858 210.343 468.171 210.013 468.571 209.78C468.978 209.547 469.441 209.43 469.961 209.43C470.635 209.43 471.188 209.593 471.621 209.92C472.061 210.247 472.351 210.7 472.491 211.28H471.511C471.418 210.947 471.235 210.683 470.961 210.49C470.695 210.297 470.361 210.2 469.961 210.2C469.441 210.2 469.021 210.38 468.701 210.74C468.381 211.093 468.221 211.597 468.221 212.25C468.221 212.91 468.381 213.42 468.701 213.78C469.021 214.14 469.441 214.32 469.961 214.32C470.361 214.32 470.695 214.227 470.961 214.04C471.228 213.853 471.411 213.587 471.511 213.24H472.491C472.345 213.8 472.051 214.25 471.611 214.59C471.171 214.923 470.621 215.09 469.961 215.09C469.441 215.09 468.978 214.973 468.571 214.74C468.171 214.507 467.858 214.177 467.631 213.75C467.405 213.323 467.291 212.823 467.291 212.25ZM474.816 210.27V213.5C474.816 213.767 474.872 213.957 474.986 214.07C475.099 214.177 475.296 214.23 475.576 214.23H476.246V215H475.426C474.919 215 474.539 214.883 474.286 214.65C474.032 214.417 473.906 214.033 473.906 213.5V210.27H473.196V209.52H473.906V208.14H474.816V209.52H476.246V210.27H474.816Z" fill="white"/>
<rect width="454" height="1" transform="translate(17 91)" fill="#F7F7F7" fill-opacity="0.1"/>
<rect width="454" height="1" transform="translate(17 158)" fill="#F7F7F7" fill-opacity="0.1"/>
<rect width="454" height="1" transform="translate(17 126)" fill="#F7F7F7" fill-opacity="0.1"/>
<rect width="454" height="1" transform="translate(17 21)" fill="#F7F7F7" fill-opacity="0.1"/>
<rect width="454" height="1" transform="translate(17 56)" fill="#F7F7F7" fill-opacity="0.1"/>
<rect width="454" height="1" transform="translate(17 194)" fill="#F7F7F7" fill-opacity="0.1"/>
<path fill-rule="evenodd" clip-rule="evenodd" d="M412.5 66C413.881 66 415 67.1193 415 68.5L415 190.5C415 191.881 413.881 193 412.5 193C411.119 193 410 191.881 410 190.5L410 68.5C410 67.1193 411.119 66 412.5 66Z" fill="#0E45B7" fill-opacity="0.947208"/>
<path fill-rule="evenodd" clip-rule="evenodd" d="M422.5 120C423.881 120 425 121.119 425 122.5L425 190.5C425 191.881 423.881 193 422.5 193C421.119 193 420 191.881 420 190.5L420 122.5C420 121.119 421.119 120 422.5 120Z" fill="#71DDB1"/>
<path fill-rule="evenodd" clip-rule="evenodd" d="M458.5 158C459.881 158 461 159.119 461 160.5V190.5C461 191.881 459.881 193 458.5 193C457.119 193 456 191.881 456 190.5V160.5C456 159.119 457.119 158 458.5 158Z" fill="#0E45B7" fill-opacity="0.947208"/>
<path fill-rule="evenodd" clip-rule="evenodd" d="M468.5 172.882C469.881 172.882 471 174.001 471 175.382L471 190.5C471 191.881 469.881 193 468.5 193C467.119 193 466 191.881 466 190.5L466 175.382C466 174.001 467.119 172.882 468.5 172.882Z" fill="#3FBDF1"/>
<path fill-rule="evenodd" clip-rule="evenodd" d="M30.5 51C31.8807 51 33 52.1193 33 53.5L33 191.5C33 192.881 31.8807 194 30.5 194C29.1193 194 28 192.881 28 191.5L28 53.5C28 52.1193 29.1193 51 30.5 51Z" fill="#0E45B7" fill-opacity="0.947208"/>
<path fill-rule="evenodd" clip-rule="evenodd" d="M40.5 116C41.8807 116 43 117.119 43 118.5L43 133.5L43 148.5C43 149.881 41.8807 151 40.5 151C39.1193 151 38 149.881 38 148.5L38 118.5C38 117.119 39.1193 116 40.5 116Z" fill="#71DDB1"/>
<path fill-rule="evenodd" clip-rule="evenodd" d="M40.5 151C41.8807 151 43 152.119 43 153.5L43 172L43 190.5C43 191.881 41.8807 193 40.5 193C39.1193 193 38 191.881 38 190.5L38 153.5C38 152.119 39.1193 151 40.5 151Z" fill="#3FBDF1"/>
<path fill-rule="evenodd" clip-rule="evenodd" d="M82.5 90C83.8807 90 85 91.1193 85 92.5L85 190.5C85 191.881 83.8807 193 82.5 193C81.1193 193 80 191.881 80 190.5L80 92.5C80 91.1193 81.1193 90 82.5 90Z" fill="#0E45B7" fill-opacity="0.947208"/>
<path fill-rule="evenodd" clip-rule="evenodd" d="M92.5 143C93.8807 143 95 144.119 95 145.5L95 190.5C95 191.881 93.8807 193 92.5 193C91.1193 193 90 191.881 90 190.5L90 145.5C90 144.119 91.1193 143 92.5 143Z" fill="#71DDB1"/>
<path fill-rule="evenodd" clip-rule="evenodd" d="M131.5 154C132.881 154 134 155.119 134 156.5L134 191.5C134 192.881 132.881 194 131.5 194C130.119 194 129 192.881 129 191.5L129 156.5C129 155.119 130.119 154 131.5 154Z" fill="#0E45B7" fill-opacity="0.947208"/>
<path fill-rule="evenodd" clip-rule="evenodd" d="M141.5 171.008C142.881 171.008 144 172.127 144 173.508L144 191.5C144 192.881 142.881 194 141.5 194C140.119 194 139 192.881 139 191.5L139 173.508C139 172.127 140.119 171.008 141.5 171.008Z" fill="#71DDB1"/>
<path fill-rule="evenodd" clip-rule="evenodd" d="M177.5 147C178.881 147 180 148.119 180 149.5L180 191.5C180 192.881 178.881 194 177.5 194C176.119 194 175 192.881 175 191.5L175 149.5C175 148.119 176.119 147 177.5 147Z" fill="#0E45B7" fill-opacity="0.947208"/>
<path fill-rule="evenodd" clip-rule="evenodd" d="M177.5 100C178.881 100 180 101.119 180 102.5L180 144.5C180 145.881 178.881 147 177.5 147C176.119 147 175 145.881 175 144.5L175 102.5C175 101.119 176.119 100 177.5 100Z" fill="#3FBDF1"/>
<path fill-rule="evenodd" clip-rule="evenodd" d="M187.5 121C188.881 121 190 122.119 190 123.5L190 191.5C190 192.881 188.881 194 187.5 194C186.119 194 185 192.881 185 191.5L185 123.5C185 122.119 186.119 121 187.5 121Z" fill="#71DDB1"/>
<path fill-rule="evenodd" clip-rule="evenodd" d="M226.5 91C227.881 91 229 92.1193 229 93.5L229 190.5C229 191.881 227.881 193 226.5 193C225.119 193 224 191.881 224 190.5L224 93.5C224 92.1193 225.119 91 226.5 91Z" fill="#0E45B7" fill-opacity="0.947208"/>
<path fill-rule="evenodd" clip-rule="evenodd" d="M236.5 120C237.881 120 239 121.119 239 122.5L239 190.5C239 191.881 237.881 193 236.5 193C235.119 193 234 191.881 234 190.5L234 122.5C234 121.119 235.119 120 236.5 120Z" fill="#71DDB1"/>
<path fill-rule="evenodd" clip-rule="evenodd" d="M273.5 133C274.881 133 276 134.119 276 135.5L276 190.5C276 191.881 274.881 193 273.5 193C272.119 193 271 191.881 271 190.5L271 135.5C271 134.119 272.119 133 273.5 133Z" fill="#3FBDF1"/>
<path fill-rule="evenodd" clip-rule="evenodd" d="M283.5 158.512C284.881 158.512 286 159.631 286 161.012L286 190.5C286 191.881 284.881 193 283.5 193C282.119 193 281 191.881 281 190.5L281 161.012C281 159.631 282.119 158.512 283.5 158.512Z" fill="#71DDB1"/>
<path fill-rule="evenodd" clip-rule="evenodd" d="M319.5 21C320.881 21 322 22.1193 322 23.5L322 190.5C322 191.881 320.881 193 319.5 193C318.119 193 317 191.881 317 190.5L317 23.5C317 22.1193 318.119 21 319.5 21Z" fill="#0E45B7" fill-opacity="0.947208"/>
<path fill-rule="evenodd" clip-rule="evenodd" d="M329.5 120C330.881 120 332 121.119 332 122.5L332 190.5C332 191.881 330.881 193 329.5 193C328.119 193 327 191.881 327 190.5L327 122.5C327 121.119 328.119 120 329.5 120Z" fill="#71DDB1"/>
<path fill-rule="evenodd" clip-rule="evenodd" d="M366.5 95C367.881 95 369 96.1193 369 97.5L369 191.5C369 192.881 367.881 194 366.5 194C365.119 194 364 192.881 364 191.5L364 97.5C364 96.1193 365.119 95 366.5 95Z" fill="#0E45B7" fill-opacity="0.947208"/>
<path fill-rule="evenodd" clip-rule="evenodd" d="M376.5 121C377.881 121 379 122.119 379 123.5V160.5C379 161.881 377.881 163 376.5 163C375.119 163 374 161.881 374 160.5V123.5C374 122.119 375.119 121 376.5 121Z" fill="#3FBDF1"/>
<path fill-rule="evenodd" clip-rule="evenodd" d="M376.5 163C377.881 163 379 164.119 379 165.5V191.5C379 192.881 377.881 194 376.5 194C375.119 194 374 192.881 374 191.5V165.5C374 164.119 375.119 163 376.5 163Z" fill="#71DDB1"/>
<g filter="url(#filter0_bd_1002_92)">
<rect x="302" y="8" width="35.1429" height="12" rx="6" fill="#FBFBFF" fill-opacity="0.22"/>
</g>
<path d="M316.138 13.136H314.032V14.504C314.124 14.376 314.26 14.272 314.44 14.192C314.62 14.108 314.814 14.066 315.022 14.066C315.354 14.066 315.624 14.136 315.832 14.276C316.04 14.412 316.188 14.59 316.276 14.81C316.368 15.026 316.414 15.256 316.414 15.5C316.414 15.788 316.36 16.046 316.252 16.274C316.144 16.502 315.978 16.682 315.754 16.814C315.534 16.946 315.26 17.012 314.932 17.012C314.512 17.012 314.172 16.904 313.912 16.688C313.652 16.472 313.494 16.184 313.438 15.824H313.972C314.024 16.052 314.134 16.23 314.302 16.358C314.47 16.486 314.682 16.55 314.938 16.55C315.254 16.55 315.492 16.456 315.652 16.268C315.812 16.076 315.892 15.824 315.892 15.512C315.892 15.2 315.812 14.96 315.652 14.792C315.492 14.62 315.256 14.534 314.944 14.534C314.732 14.534 314.546 14.586 314.386 14.69C314.23 14.79 314.116 14.928 314.044 15.104H313.528V12.656H316.138V13.136ZM317.14 14.786C317.14 14.098 317.252 13.562 317.476 13.178C317.7 12.79 318.092 12.596 318.652 12.596C319.208 12.596 319.598 12.79 319.822 13.178C320.046 13.562 320.158 14.098 320.158 14.786C320.158 15.486 320.046 16.03 319.822 16.418C319.598 16.806 319.208 17 318.652 17C318.092 17 317.7 16.806 317.476 16.418C317.252 16.03 317.14 15.486 317.14 14.786ZM319.618 14.786C319.618 14.438 319.594 14.144 319.546 13.904C319.502 13.66 319.408 13.464 319.264 13.316C319.124 13.168 318.92 13.094 318.652 13.094C318.38 13.094 318.172 13.168 318.028 13.316C317.888 13.464 317.794 13.66 317.746 13.904C317.702 14.144 317.68 14.438 317.68 14.786C317.68 15.146 317.702 15.448 317.746 15.692C317.794 15.936 317.888 16.132 318.028 16.28C318.172 16.428 318.38 16.502 318.652 16.502C318.92 16.502 319.124 16.428 319.264 16.28C319.408 16.132 319.502 15.936 319.546 15.692C319.594 15.448 319.618 15.146 319.618 14.786ZM321.171 17.036C321.067 17.036 320.979 17 320.907 16.928C320.835 16.856 320.799 16.768 320.799 16.664C320.799 16.56 320.835 16.472 320.907 16.4C320.979 16.328 321.067 16.292 321.171 16.292C321.271 16.292 321.355 16.328 321.423 16.4C321.495 16.472 321.531 16.56 321.531 16.664C321.531 16.768 321.495 16.856 321.423 16.928C321.355 17 321.271 17.036 321.171 17.036ZM324.933 13.136H322.827V14.504C322.919 14.376 323.055 14.272 323.235 14.192C323.415 14.108 323.609 14.066 323.817 14.066C324.149 14.066 324.419 14.136 324.627 14.276C324.835 14.412 324.983 14.59 325.071 14.81C325.163 15.026 325.209 15.256 325.209 15.5C325.209 15.788 325.155 16.046 325.047 16.274C324.939 16.502 324.773 16.682 324.549 16.814C324.329 16.946 324.055 17.012 323.727 17.012C323.307 17.012 322.967 16.904 322.707 16.688C322.447 16.472 322.289 16.184 322.233 15.824H322.767C322.819 16.052 322.929 16.23 323.097 16.358C323.265 16.486 323.477 16.55 323.733 16.55C324.049 16.55 324.287 16.456 324.447 16.268C324.607 16.076 324.687 15.824 324.687 15.512C324.687 15.2 324.607 14.96 324.447 14.792C324.287 14.62 324.051 14.534 323.739 14.534C323.527 14.534 323.341 14.586 323.181 14.69C323.025 14.79 322.911 14.928 322.839 15.104H322.323V12.656H324.933V13.136ZM326.571 12.56V17H326.025V12.56H326.571ZM328.167 14.162V16.1C328.167 16.26 328.201 16.374 328.269 16.442C328.337 16.506 328.455 16.538 328.623 16.538H329.025V17H328.533C328.229 17 328.001 16.93 327.849 16.79C327.697 16.65 327.621 16.42 327.621 16.1V14.162H327.195V13.712H327.621V12.884H328.167V13.712H329.025V14.162H328.167ZM330.233 14.246C330.329 14.058 330.465 13.912 330.641 13.808C330.821 13.704 331.039 13.652 331.295 13.652V14.216H331.151C330.539 14.216 330.233 14.548 330.233 15.212V17H329.687V13.712H330.233V14.246ZM333.089 17.054C332.837 17.054 332.611 17.012 332.411 16.928C332.211 16.84 332.053 16.72 331.937 16.568C331.821 16.412 331.757 16.234 331.745 16.034H332.309C332.325 16.198 332.401 16.332 332.537 16.436C332.677 16.54 332.859 16.592 333.083 16.592C333.291 16.592 333.455 16.546 333.575 16.454C333.695 16.362 333.755 16.246 333.755 16.106C333.755 15.962 333.691 15.856 333.563 15.788C333.435 15.716 333.237 15.646 332.969 15.578C332.725 15.514 332.525 15.45 332.369 15.386C332.217 15.318 332.085 15.22 331.973 15.092C331.865 14.96 331.811 14.788 331.811 14.576C331.811 14.408 331.861 14.254 331.961 14.114C332.061 13.974 332.203 13.864 332.387 13.784C332.571 13.7 332.781 13.658 333.017 13.658C333.381 13.658 333.675 13.75 333.899 13.934C334.123 14.118 334.243 14.37 334.259 14.69H333.713C333.701 14.518 333.631 14.38 333.503 14.276C333.379 14.172 333.211 14.12 332.999 14.12C332.803 14.12 332.647 14.162 332.531 14.246C332.415 14.33 332.357 14.44 332.357 14.576C332.357 14.684 332.391 14.774 332.459 14.846C332.531 14.914 332.619 14.97 332.723 15.014C332.831 15.054 332.979 15.1 333.167 15.152C333.403 15.216 333.595 15.28 333.743 15.344C333.891 15.404 334.017 15.496 334.121 15.62C334.229 15.744 334.285 15.906 334.289 16.106C334.289 16.286 334.239 16.448 334.139 16.592C334.039 16.736 333.897 16.85 333.713 16.934C333.533 17.014 333.325 17.054 333.089 17.054Z" fill="white"/>
<circle cx="308" cy="14" r="1.71429" fill="#1A4FBA"/>
<g filter="url(#filter1_bd_1002_92)">
<rect x="451" y="159" width="35.1429" height="12" rx="6" fill="url(#paint0_linear_1002_92)"/>
</g>
<path d="M464.138 164.136H462.032V165.504C462.124 165.376 462.26 165.272 462.44 165.192C462.62 165.108 462.814 165.066 463.022 165.066C463.354 165.066 463.624 165.136 463.832 165.276C464.04 165.412 464.188 165.59 464.276 165.81C464.368 166.026 464.414 166.256 464.414 166.5C464.414 166.788 464.36 167.046 464.252 167.274C464.144 167.502 463.978 167.682 463.754 167.814C463.534 167.946 463.26 168.012 462.932 168.012C462.512 168.012 462.172 167.904 461.912 167.688C461.652 167.472 461.494 167.184 461.438 166.824H461.972C462.024 167.052 462.134 167.23 462.302 167.358C462.47 167.486 462.682 167.55 462.938 167.55C463.254 167.55 463.492 167.456 463.652 167.268C463.812 167.076 463.892 166.824 463.892 166.512C463.892 166.2 463.812 165.96 463.652 165.792C463.492 165.62 463.256 165.534 462.944 165.534C462.732 165.534 462.546 165.586 462.386 165.69C462.23 165.79 462.116 165.928 462.044 166.104H461.528V163.656H464.138V164.136ZM465.404 168.036C465.3 168.036 465.212 168 465.14 167.928C465.068 167.856 465.032 167.768 465.032 167.664C465.032 167.56 465.068 167.472 465.14 167.4C465.212 167.328 465.3 167.292 465.404 167.292C465.504 167.292 465.588 167.328 465.656 167.4C465.728 167.472 465.764 167.56 465.764 167.664C465.764 167.768 465.728 167.856 465.656 167.928C465.588 168 465.504 168.036 465.404 168.036ZM466.255 164.16V163.662H467.383V168H466.831V164.16H466.255ZM471.175 168.054C470.923 168.054 470.697 168.012 470.497 167.928C470.297 167.84 470.139 167.72 470.023 167.568C469.907 167.412 469.843 167.234 469.831 167.034H470.395C470.411 167.198 470.487 167.332 470.623 167.436C470.763 167.54 470.945 167.592 471.169 167.592C471.377 167.592 471.541 167.546 471.661 167.454C471.781 167.362 471.841 167.246 471.841 167.106C471.841 166.962 471.777 166.856 471.649 166.788C471.521 166.716 471.323 166.646 471.055 166.578C470.811 166.514 470.611 166.45 470.455 166.386C470.303 166.318 470.171 166.22 470.059 166.092C469.951 165.96 469.897 165.788 469.897 165.576C469.897 165.408 469.947 165.254 470.047 165.114C470.147 164.974 470.289 164.864 470.473 164.784C470.657 164.7 470.867 164.658 471.103 164.658C471.467 164.658 471.761 164.75 471.985 164.934C472.209 165.118 472.329 165.37 472.345 165.69H471.799C471.787 165.518 471.717 165.38 471.589 165.276C471.465 165.172 471.297 165.12 471.085 165.12C470.889 165.12 470.733 165.162 470.617 165.246C470.501 165.33 470.443 165.44 470.443 165.576C470.443 165.684 470.477 165.774 470.545 165.846C470.617 165.914 470.705 165.97 470.809 166.014C470.917 166.054 471.065 166.1 471.253 166.152C471.489 166.216 471.681 166.28 471.829 166.344C471.977 166.404 472.103 166.496 472.207 166.62C472.315 166.744 472.371 166.906 472.375 167.106C472.375 167.286 472.325 167.448 472.225 167.592C472.125 167.736 471.983 167.85 471.799 167.934C471.619 168.014 471.411 168.054 471.175 168.054ZM473.812 165.162V167.1C473.812 167.26 473.846 167.374 473.914 167.442C473.982 167.506 474.1 167.538 474.268 167.538H474.67V168H474.178C473.874 168 473.646 167.93 473.494 167.79C473.342 167.65 473.266 167.42 473.266 167.1V165.162H472.84V164.712H473.266V163.884H473.812V164.712H474.67V165.162H473.812ZM478.331 166.23C478.331 166.334 478.325 166.444 478.313 166.56H475.685C475.705 166.884 475.815 167.138 476.015 167.322C476.219 167.502 476.465 167.592 476.753 167.592C476.989 167.592 477.185 167.538 477.341 167.43C477.501 167.318 477.613 167.17 477.677 166.986H478.265C478.177 167.302 478.001 167.56 477.737 167.76C477.473 167.956 477.145 168.054 476.753 168.054C476.441 168.054 476.161 167.984 475.913 167.844C475.669 167.704 475.477 167.506 475.337 167.25C475.197 166.99 475.127 166.69 475.127 166.35C475.127 166.01 475.195 165.712 475.331 165.456C475.467 165.2 475.657 165.004 475.901 164.868C476.149 164.728 476.433 164.658 476.753 164.658C477.065 164.658 477.341 164.726 477.581 164.862C477.821 164.998 478.005 165.186 478.133 165.426C478.265 165.662 478.331 165.93 478.331 166.23ZM477.767 166.116C477.767 165.908 477.721 165.73 477.629 165.582C477.537 165.43 477.411 165.316 477.251 165.24C477.095 165.16 476.921 165.12 476.729 165.12C476.453 165.12 476.217 165.208 476.021 165.384C475.829 165.56 475.719 165.804 475.691 166.116H477.767ZM479.598 165.318C479.706 165.13 479.866 164.974 480.078 164.85C480.294 164.722 480.544 164.658 480.828 164.658C481.12 164.658 481.384 164.728 481.62 164.868C481.86 165.008 482.048 165.206 482.184 165.462C482.32 165.714 482.388 166.008 482.388 166.344C482.388 166.676 482.32 166.972 482.184 167.232C482.048 167.492 481.86 167.694 481.62 167.838C481.384 167.982 481.12 168.054 480.828 168.054C480.548 168.054 480.3 167.992 480.084 167.868C479.872 167.74 479.71 167.582 479.598 167.394V169.56H479.052V164.712H479.598V165.318ZM481.83 166.344C481.83 166.096 481.78 165.88 481.68 165.696C481.58 165.512 481.444 165.372 481.272 165.276C481.104 165.18 480.918 165.132 480.714 165.132C480.514 165.132 480.328 165.182 480.156 165.282C479.988 165.378 479.852 165.52 479.748 165.708C479.648 165.892 479.598 166.106 479.598 166.35C479.598 166.598 479.648 166.816 479.748 167.004C479.852 167.188 479.988 167.33 480.156 167.43C480.328 167.526 480.514 167.574 480.714 167.574C480.918 167.574 481.104 167.526 481.272 167.43C481.444 167.33 481.58 167.188 481.68 167.004C481.78 166.816 481.83 166.596 481.83 166.344ZM484.271 168.054C484.019 168.054 483.793 168.012 483.593 167.928C483.393 167.84 483.235 167.72 483.119 167.568C483.003 167.412 482.939 167.234 482.927 167.034H483.491C483.507 167.198 483.583 167.332 483.719 167.436C483.859 167.54 484.041 167.592 484.265 167.592C484.473 167.592 484.637 167.546 484.757 167.454C484.877 167.362 484.937 167.246 484.937 167.106C484.937 166.962 484.873 166.856 484.745 166.788C484.617 166.716 484.419 166.646 484.151 166.578C483.907 166.514 483.707 166.45 483.551 166.386C483.399 166.318 483.267 166.22 483.155 166.092C483.047 165.96 482.993 165.788 482.993 165.576C482.993 165.408 483.043 165.254 483.143 165.114C483.243 164.974 483.385 164.864 483.569 164.784C483.753 164.7 483.963 164.658 484.199 164.658C484.563 164.658 484.857 164.75 485.081 164.934C485.305 165.118 485.425 165.37 485.441 165.69H484.895C484.883 165.518 484.813 165.38 484.685 165.276C484.561 165.172 484.393 165.12 484.181 165.12C483.985 165.12 483.829 165.162 483.713 165.246C483.597 165.33 483.539 165.44 483.539 165.576C483.539 165.684 483.573 165.774 483.641 165.846C483.713 165.914 483.801 165.97 483.905 166.014C484.013 166.054 484.161 166.1 484.349 166.152C484.585 166.216 484.777 166.28 484.925 166.344C485.073 166.404 485.199 166.496 485.303 166.62C485.411 166.744 485.467 166.906 485.471 167.106C485.471 167.286 485.421 167.448 485.321 167.592C485.221 167.736 485.079 167.85 484.895 167.934C484.715 168.014 484.507 168.054 484.271 168.054Z" fill="#6F6C99"/>
<circle cx="457" cy="165" r="1.71429" fill="#3FBDF1"/>
<defs>
<filter id="filter0_bd_1002_92" x="287" y="0.285714" width="65.1428" height="42" filterUnits="userSpaceOnUse" color-interpolation-filters="sRGB">
<feFlood flood-opacity="0" result="BackgroundImageFix"/>
<feGaussianBlur in="BackgroundImageFix" stdDeviation="3.21429"/>
<feComposite in2="SourceAlpha" operator="in" result="effect1_backgroundBlur_1002_92"/>
<feColorMatrix in="SourceAlpha" type="matrix" values="0 0 0 0 0 0 0 0 0 0 0 0 0 0 0 0 0 0 127 0" result="hardAlpha"/>
<feOffset dy="7.28571"/>
<feGaussianBlur stdDeviation="7.5"/>
<feColorMatrix type="matrix" values="0 0 0 0 1 0 0 0 0 0.225 0 0 0 0 0.876 0 0 0 0.15 0"/>
<feBlend mode="normal" in2="effect1_backgroundBlur_1002_92" result="effect2_dropShadow_1002_92"/>
<feBlend mode="normal" in="SourceGraphic" in2="effect2_dropShadow_1002_92" result="shape"/>
</filter>
<filter id="filter1_bd_1002_92" x="436" y="151.286" width="65.1428" height="42" filterUnits="userSpaceOnUse" color-interpolation-filters="sRGB">
<feFlood flood-opacity="0" result="BackgroundImageFix"/>
<feGaussianBlur in="BackgroundImageFix" stdDeviation="3.21429"/>
<feComposite in2="SourceAlpha" operator="in" result="effect1_backgroundBlur_1002_92"/>
<feColorMatrix in="SourceAlpha" type="matrix" values="0 0 0 0 0 0 0 0 0 0 0 0 0 0 0 0 0 0 127 0" result="hardAlpha"/>
<feOffset dy="7.28571"/>
<feGaussianBlur stdDeviation="7.5"/>
<feColorMatrix type="matrix" values="0 0 0 0 1 0 0 0 0 0.225 0 0 0 0 0.876 0 0 0 0.15 0"/>
<feBlend mode="normal" in2="effect1_backgroundBlur_1002_92" result="effect2_dropShadow_1002_92"/>
<feBlend mode="normal" in="SourceGraphic" in2="effect2_dropShadow_1002_92" result="shape"/>
</filter>
<linearGradient id="paint0_linear_1002_92" x1="454.29" y1="158.127" x2="479.644" y2="171" gradientUnits="userSpaceOnUse">
<stop stop-color="#FBFBFF"/>
<stop offset="1" stop-color="white" stop-opacity="0.83"/>
</linearGradient>
</defs>
</svg>
