<svg width="18" height="17" viewBox="0 0 18 17" fill="none" xmlns="http://www.w3.org/2000/svg">
<path fill-rule="evenodd" clip-rule="evenodd" d="M16.7924 7.64407C17.0052 8.04823 17.2179 8.45241 17.5337 9.03777C17.5337 9.03777 18.0168 9.99706 17.9853 10.0819C17.9458 10.1883 17.8274 10.2593 17.709 10.2947L16.0511 10.614V11.4554C16.0139 12.1577 15.8627 12.4839 15.6679 12.9038C15.656 12.9294 15.644 12.9553 15.6319 12.9816C15.4199 13.4411 14.6282 13.9737 14.4703 14.0446C13.6019 14.5413 12.9327 14.6585 12.3406 14.5166V16.6452C12.3406 16.8226 12.1827 17 11.9459 17H4.24853C4.05116 17 3.85379 16.8226 3.85379 16.6452V14.694C3.85379 13.3458 3.38011 12.0686 2.51169 11.1107L2.51168 11.1107C2.35379 10.9333 2.1959 10.7559 2.07748 10.5786C0.222225 7.95321 0.656434 3.37661 4.01168 1.17699C5.43273 0.254577 7.24852 -0.135676 9.41956 0.0417116C10.959 0.148144 12.459 0.680308 13.8801 1.56725C15.0248 2.2768 15.7353 3.34113 15.8537 4.54737L16.0511 6.25029C16.3669 6.83569 16.5797 7.23988 16.7924 7.64407ZM5.59063 4.76023C5.59063 6.74698 8.27483 7.95321 8.70904 7.95321C9.14324 7.95321 11.8274 6.74698 11.8274 4.76023C11.8274 3.97972 11.1169 3.34113 10.2485 3.34113C9.77482 3.34113 9.34061 3.55399 9.02482 3.87329C8.94588 3.97972 8.82746 4.0152 8.70904 4.0152C8.59062 4.0152 8.47219 3.94425 8.39325 3.87329C8.11693 3.51852 7.64325 3.34113 7.16957 3.34113C6.30115 3.34113 5.59063 3.97972 5.59063 4.76023Z" fill="#5FC5FF"/>
</svg>
