<svg width="71" height="70" viewBox="0 0 71 70" fill="none" xmlns="http://www.w3.org/2000/svg">
<path opacity="0.2" d="M50.8274 38.2935C49.8564 42.3924 47.2968 45.9376 43.7118 48.1493C40.1268 50.361 35.8101 51.058 31.7112 50.087C27.6123 49.1159 24.0671 46.5564 21.8553 42.9714C19.6436 39.3864 18.9466 35.0696 19.9177 30.9708C20.8887 26.8719 23.4483 23.3266 27.0333 21.1149C30.6183 18.9032 34.935 18.2062 39.0339 19.1772C43.1328 20.1483 46.6781 22.7078 48.8898 26.2928C51.1015 29.8778 51.7985 34.1946 50.8274 38.2935L50.8274 38.2935Z" stroke="#85A5C2" stroke-width="3" stroke-linecap="round"/>
<path d="M30.1732 49.6396C27.0074 48.5429 24.2696 46.4731 22.3513 43.7264C20.4329 40.9796 19.4323 37.6966 19.4925 34.3468C19.5527 30.997 20.6706 27.7521 22.6864 25.076C24.7022 22.4 27.5126 20.4299 30.7157 19.4476C33.9188 18.4652 37.3504 18.5209 40.5199 19.6067C43.6894 20.6925 46.4344 22.7528 48.3623 25.4929C50.2901 28.233 51.3021 31.5125 51.2535 34.8625C51.2049 38.2125 50.0983 41.4613 48.0917 44.1443" stroke="#71DDB1" stroke-width="3" stroke-linecap="round"/>
</svg>
