<svg width="70" height="70" viewBox="0 0 70 70" fill="none" xmlns="http://www.w3.org/2000/svg">
<path opacity="0.2" d="M50.0867 38.4866C49.1157 42.5855 46.5561 46.1307 42.9711 48.3424C39.3861 50.5541 35.0694 51.2511 30.9705 50.2801C26.8716 49.309 23.3263 46.7495 21.1146 43.1645C18.9029 39.5795 18.2059 35.2628 19.177 31.1639C20.148 27.065 22.7076 23.5197 26.2926 21.308C29.8775 19.0963 34.1943 18.3993 38.2932 19.3704C42.3921 20.3414 45.9373 22.901 48.149 26.4859C50.3608 30.0709 51.0578 34.3877 50.0867 38.4866L50.0867 38.4866Z" stroke="#85A5C2" stroke-width="3" stroke-linecap="round"/>
<path d="M31.505 19.2534C33.9634 18.7598 36.5038 18.8553 38.9183 19.532C41.3327 20.2088 43.5526 21.4477 45.3964 23.1472C47.2401 24.8467 48.6552 26.9586 49.5259 29.3101C50.3967 31.6616 50.6982 34.1858 50.406 36.6763" stroke="#3FBDF1" stroke-width="3" stroke-linecap="round"/>
</svg>
