<svg width="260" height="260" viewBox="0 0 260 260" fill="none" xmlns="http://www.w3.org/2000/svg">
<path opacity="0.2" d="M78.1687 158.598C73.0778 149.594 70.4424 139.41 70.5267 129.066C70.6111 118.723 73.412 108.584 78.6491 99.6639C83.8861 90.7441 91.3752 83.3572 100.366 78.2432C109.357 73.1292 119.534 70.4678 129.878 70.5256C140.221 70.5834 150.368 73.3584 159.301 78.5725C168.234 83.7867 175.64 91.2568 180.777 100.235C185.914 109.212 188.602 119.383 188.57 129.726C188.539 140.07 185.79 150.223 180.599 159.17" stroke="#85A5C2" stroke-width="12" stroke-linecap="round"/>
<path d="M78.0872 158.453C70.5794 145.087 68.5668 129.324 72.4754 114.5C76.384 99.6757 85.907 86.9541 99.0292 79.0272C112.151 71.1004 127.843 68.5901 142.783 72.0279C157.723 75.4656 170.74 84.5814 179.078 97.4463" stroke="#71DDB1" stroke-width="12" stroke-linecap="round"/>
</svg>
