<svg width="29" height="31" viewBox="0 0 29 31" fill="none" xmlns="http://www.w3.org/2000/svg">
<g id="caduceus">
<path id="Combined Shape" fill-rule="evenodd" clip-rule="evenodd" d="M21.2104 0.962968H28.2236C28.2236 0.962968 28.4903 8.66762 21.2104 8.66762C19.8576 8.66762 18.6629 8.02138 17.9385 7.03326C17.6493 6.63841 17.0619 6.58833 16.7107 6.9331L15.2069 8.40758V13.3935L13.2057 14.0243V3.59217C12.6083 3.25895 12.2051 2.63873 12.2051 1.92604C12.2051 0.828133 13.1596 -0.0559774 14.3153 0.00277595C15.3489 0.0547799 16.1854 0.887838 16.2074 1.88368C16.2234 2.61368 15.8162 3.2522 15.2069 3.59217V5.20919L18.2216 2.25253V2.25446C18.9551 1.46185 20.0217 0.962968 21.2104 0.962968ZM10.4645 7.00914C10.7552 6.61281 11.3458 6.56353 11.699 6.90862L12.2051 7.40449V4.19433L10.1797 2.21177V2.21273C9.44224 1.41818 8.36968 0.917465 7.17445 0.917465H0.122433C0.122433 0.917465 0.547028 8.65047 7.17445 8.65047C8.5347 8.65047 9.73603 8.00185 10.4645 7.00914ZM11.0844 14.737L11.0734 14.7409C10.2277 15.0161 9.48284 15.3966 8.85788 15.8592C7.53444 14.8529 7.31773 13.694 7.31773 13.045C7.31773 12.1265 7.53344 11.2525 8.54441 10.4161C9.60175 9.51703 10.9776 9.4639 11.4806 10.2539C11.9432 10.9802 11.4907 12.141 10.4706 12.848C10.1158 13.0933 9.73981 13.2497 9.38001 13.3212C9.50498 13.7085 9.88497 14.1025 10.4646 14.4347C10.6691 14.5516 10.8354 14.6375 11.0844 14.737ZM16.9961 10.6724C17.4795 9.714 18.8028 9.7807 19.8181 10.8689C20.7907 11.8823 20.9971 12.9412 20.9999 14.0552C20.9999 14.9539 20.7287 16.6588 18.9084 17.9728C18.4928 18.2724 18.1799 18.4538 17.5579 18.7241C18.889 19.5361 19.6592 20.8186 19.6592 22.2825C19.6592 24.4016 18.2002 25.6127 16.5514 26.3323C17.3671 27.0379 17.7972 27.9588 17.7972 28.9078C17.7972 29.5244 17.7333 30.1715 16.9099 30.9251L16.9089 30.9239C16.8605 30.9707 16.8004 31 16.7335 31C16.5785 31 16.4526 30.8479 16.4526 30.6607C16.4526 30.5986 16.4671 30.5413 16.4913 30.491L16.4904 30.4898C17.1133 29.2272 16.4129 28.4304 15.2998 27.8664V29.8287C15.2998 30.4746 14.8657 30.9988 14.331 30.9988C13.7962 30.9988 13.3622 30.4746 13.3622 29.8287V27.8652C12.2036 28.4526 11.6069 29.1313 12.1687 30.4898C12.1929 30.5401 12.2075 30.5975 12.2075 30.6595C12.2075 30.8467 12.0815 30.9988 11.9265 30.9988C11.8597 30.9988 11.7986 30.9696 11.7502 30.9228L11.7493 30.9239C10.8987 30.2031 10.8425 29.4777 10.8425 28.8926C10.8425 27.8734 11.2804 27.0063 12.0951 26.3241C12.486 25.9985 12.7251 25.8704 13.7102 25.3428L13.7103 25.3428L13.7103 25.3428C13.8897 25.2467 14.0938 25.1374 14.3281 25.0112C14.6814 24.8208 15.0009 24.6517 15.2893 24.4991C17.1541 23.5123 17.7188 23.2135 17.7188 22.2801C17.7188 21.8355 17.1937 21.1708 16.192 20.759C15.9582 20.6645 15.7344 20.5752 15.52 20.4896L15.5199 20.4896L15.2978 20.4009V21.8928L13.3603 22.9366V20.3997C13.0784 20.5121 12.78 20.6314 12.4632 20.759C11.4615 21.1697 10.9364 21.8355 10.9364 22.2801C10.9364 22.8874 11.1728 23.242 11.9391 23.7101C11.2736 24.1044 10.704 24.597 10.2476 25.1645C9.52204 24.4671 8.99994 23.5146 8.99994 22.2801C8.99994 20.5471 10.0791 19.0681 11.8926 18.3239C13.1908 17.8032 14.1789 17.4124 14.9462 17.1104C17.184 16.227 17.4466 16.117 17.9726 15.7379C18.5296 15.3353 18.8948 14.8579 19.015 14.3887C18.6691 14.3021 18.3078 14.1125 17.9667 13.8153C16.9864 12.9588 16.5524 11.5523 16.9961 10.6724Z" fill="url(#paint0_linear_112_4253)"/>
</g>
<defs>
<linearGradient id="paint0_linear_112_4253" x1="21.7542" y1="-12.5395" x2="-10.8716" y2="-12.5395" gradientUnits="userSpaceOnUse">
<stop stop-color="#1A4FBA"/>
<stop offset="0.286458" stop-color="#F3C294"/>
<stop offset="1" stop-color="#F4FAFF"/>
</linearGradient>
</defs>
</svg>
